<?xml version="1.0" encoding="UTF-8"?>
<svg id="Layer_2" data-name="Layer 2" xmlns="http://www.w3.org/2000/svg" viewBox="0 0 471.46 405.86">
  <defs>
    <style>
      .cls-1 {
        fill: #f097bc;
      }

      .cls-2 {
        fill: #dda786;
      }

      .cls-3 {
        fill: #f6313e;
      }

      .cls-4 {
        fill: #591123;
      }

      .cls-5 {
        fill: #c39173;
      }

      .cls-6 {
        fill: #d7ac91;
      }

      .cls-7 {
        fill: #fbde8b;
      }

      .cls-8 {
        fill: #401416;
      }

      .cls-9 {
        fill: #580f20;
      }

      .cls-10 {
        fill: #d44884;
      }

      .cls-11 {
        fill: #0c0608;
      }

      .cls-12 {
        fill: #fc4897;
      }
    </style>
  </defs>
  <g id="Layer_1-2" data-name="Layer 1">
    <g>
      <path class="cls-4" d="M79.56,314.61c-7.05,9.69-16.92,14.36-28.49,15.93-2.33,.31-4.72,.08-7.08,.21-11.68,.63-20.75-7.67-23.99-16.7-2.34-6.54-4.21-13.25-4.51-20.35-.36-8.49,3.2-15.69,6.61-22.98,3.13-6.68,6.33-13.32,11.23-18.96,.29-.33,.32-.89,.47-1.34,2.76-1.85,5.47-3.75,6.42-7.21,2.51,.09,3.76-2.13,5.67-3.15,1.05-.56,2.79-.63,2.86-2.45,2.7-.3,5.8,.06,6.27-3.86,1.01,.16,1.92,.97,3.06,.23,3.39-2.19,7.25-3.31,10.98-4.72,6.82-1.7,13.81-1.87,20.77-2.14,12.95-.51,25.41,2.06,37.57,6.3,1.12,1.4,2.56,.78,3.93,.65,.85,.74,1.82,.65,2.78,.33,2.6-.86,5.16-1.86,7.79-2.64,4.66-1.39,9.03-3.88,14.1-3.76,7.63,.19,13.04,6.89,11,13.59-.66,2.15-2.18,3.68-3.68,5.23-.68,.7-1.55,1.31-.61,2.45,3.82,4.58,5.97,10.07,8.33,15.45,1.05,3.99,2.1,7.98,3.16,11.97-.02,2.77-.4,5.6,1.13,8.16,0,3.69,0,7.39,0,11.08-1.09,9.4-1.98,18.82-4.24,28.31,3.22-.94,5.13-2.87,7.1-4.8,5.61-5.47,12.61-8.65,20.13-9.68,6.9-.94,13.52,.16,19.58,5.11,5.6,4.57,9.45,9.54,10.43,16.61,.3,2.14,.05,4.35,.05,6.53,.85-.33,1.14-.7,1.31-1.12,2.87-7.2,5.91-14.32,9.41-21.25,.9-1.79,2.17-3.11,4.07-3.55,2.57-.6,5.21-.93,7.81-1.4,2.27-.42,4.7-.73,6.54,.77,2.19,1.79,4.07,1.27,6.4,.47,9.22-3.18,18.83,1.63,21.6,10.48,1.55,4.96,.42,9.72-.48,14.55-.3,1.61-1.29,3.15-.84,5.13,.98-.55,1.28-1.26,1.7-1.91,3.71-5.87,6.26-12.29,8.16-18.88,1.54-5.34,3.85-9.82,8.56-12.89,3.51-1.01,7.03-2.02,10.54-3.04,4.17-.13,7.8,1.12,10.75,4.15,.47,2.82,1.35,4.92,4.83,3.03,.45-.24,1.16,.05,1.73-.05,1-.17,.73-.95,.65-1.62,.92-2.01,2.49-3.75,2.46-6.14,2.61-1.04,5.14-2.64,8.08-2.13,5.35,.93,11.21-.61,15.96,3.27,.19,.16,.57,.09,.86,.12-.79,.68-1.17,1.38-.63,2.48,.65,1.31,.7,2.79,.7,4.25-.16,2.11-1.25,3.89-2.06,5.76-.36,.84-.45,1.73,.77,1.56,1.76-.24,1.57-2.07,2.07-3.22,.57-1.29,1.77-2.59,.88-4.18-.11-.2-.74-.1-1.13-.14,3.42-1.44,4.81-4.79,2.93-7.03,2.75-.5,2.59-3.08,3.43-4.91,.31-.67-.36-1.01-.99-1.09-2.02-.24-3.46-1.69-5.23-2.46l-.07,.14,.06-.14c-1.54-2.5-2.32-5.21-2.12-8.16,.14-.48,.27-.97,.41-1.45,.76-.51,1.48-1.05,1.46-2.1,.43-.4,.86-.81,1.29-1.21,.7-.01,1.11-.4,1.35-1.02,.17,0,.31-.06,.43-.18,3.57-1,7.13-2.04,10.71-3,1.03-.28,1.78-.75,2.13-1.78,1.19-3.51,2.75-6.89,3.54-10.52,.24-.98,.48-1.95,.72-2.93,.39-.98,.78-1.97,1.17-2.95,.38-1.51,1.6-2.87,.84-4.59,1.34,.03,1.49-1.08,1.82-1.97,.97-2.57,1.94-5.15,2.83-7.75,2.03-5.94,5.13-10.79,11.71-12.51,4.61-1.21,9.23-.99,13.72,.08,5.61,1.34,8.34,6.58,6.62,12.13-.66,2.14-1.67,4.19-2.68,6.19-3.64,7.19-7.33,14.34-11.03,21.5-.73,1.42-1.23,2.52,1.18,2.61,3.27,.11,5.84,1.64,7.48,4.5,.68,1.18,1.71,1.08,2.78,1.2,3.02,.34,6.07-.31,9.07,.34-2.45,1.46-5.16,.74-7.67,.56-3.1-.22-3.91,1.26-4.1,3.79-.05,.68,0,1.37,0,2.05-2.56,2.55-5.71,4.1-9.04,5.34l-5.44,.81c-1.07,0-2.14-.07-3.2,.05-3.08,.33-3.85,1.45-3.45,4.83-.7,4.05-2.8,7.65-3.73,11.63-4.25,9.24-6.63,19.11-9.64,28.77-.08,.31-.33,.79-.22,.91,.37,.37,.53-.13,.75-.34,9.27-5.57,17.58-12.11,22.95-21.82,1.47-2.65,3.15-5.27,5.18-7.5,2.11-2.32,3.05-4.8,3.43-7.85,.65-5.23,2.51-9.89,7.67-12.48,.77-.39,1.94-.74,1.71-2.08,3.39-.51,6.72-2.07,10.21-.55,1.72,1.48,3.3,3.03,3.99,5.31,.96,3.13,1.42,6.29,1.19,9.58-.11,1.51-.61,3.14,.62,4.5-.03,4.6,1.7,7.62,4.78,8.32,.04,3.36,1.59,6.15,3.67,8.55,2.42,2.8,5,5.43,5.8,9.65,1.81-2.35,3.13-4.51,4.96-6.28,3.22-3.1,9.37-3.99,13.09-1.74,2.94,1.78,4.25,6.95,2.61,11.23-3.34,8.73-7.48,17.07-15.04,22.96-7.71,6.01-15.54,12.35-25.02,14.97-9.93,2.74-20.21,2.93-29.24-3.75-1.51-1.12-2.57-1.3-4.32-.03-5.25,3.82-10.15,8.25-16.35,10.6-6.31,2.39-12.88,3.66-19.53,2.38-3.6-.7-7.01-2.53-9.16-5.91-1.09-1.72-1.97-2.35-4.02-.65-4.42,3.68-9.38,6.45-15.27,7.34-4.45,.67-8.44,.12-11.65-3.22-1.07-1.12-1.63-.91-2.82-.15-7.88,5.04-16.39,7.15-25.73,5.21-2.91-.6-5.25-2.15-7.43-4-.93-.79-1.69-1.21-2.84-.44-5.64,3.81-12.19,4.52-18.68,5.17-4.45,.44-8.28-1.09-11.07-4.82-1.86-2.49-3.8-4.91-6.06-7.82-.87,7.24-4.09,12.16-10.9,13.75-11.45,2.68-16.05,.62-22.06-8.16-6.64,10.32-19.26,15.25-30.16,12.66-15.43-3.68-22.71-15.39-24.88-30.98-3.62,2.72-6.97,5.31-10.41,7.79-7.22,5.21-13.92,11.57-21.85,15.25-10.84,5.01-22.34,9.59-34.65,9.19-7.23-.23-14.53-.29-21.77-1.27-3.83-.52-7.33,1.76-10.86,3.16-5.23,2.07-10.29,4.77-15.98,5.36-5.57,.58-10.91,2.74-16.54,2.64-10.03-.18-18.7-3.34-24.1-12.5-5.07-8.61-1.36-18.56,5.28-23.33,8.18-5.87,16.65-5.63,25.5-5.39,4.19,.12,8.44,.62,12.52,1.84,1.48,.44,2.1-.44,2.97-1.26,7.86-7.51,13.33-16.72,18.59-26.09,3.08-5.49,6.41-10.82,10.02-15.98,1.5-2.15,2.71-4.47,3.41-7.02,.55-1.57,1.4-3.08,1.32-5.7-1.07,1.86-1.74,3.01-2.4,4.17Zm245.82,66.35c-.11-.12-.22-.25-.33-.37-.05,.07-.09,.13-.14,.2,.17,.05,.33,.1,.5,.14,1.42,1.8,3.33,.96,5.1,.87-1.76-.03-3.28-1.36-5.13-.84Zm119.91-31.92l.04,.04c.06-1.27-.02-2.57,.22-3.8,1.07-5.58-.07-10.73-2.76-15.64-3.53-6.44-7.93-12.21-13.15-17.33-1.27-1.24-1.58-2-.37-3.6,2.26-2.98,3.3-6.47,2.77-10.27-.42-3.01-1.09-5.94-4.6-6.84-3.49-.89-6.65-.19-9.22,2.42-4.53,4.6-4.71,10.36-4.15,16.27,.09,.97,.37,1.87-.01,2.87-1.85,4.88-3.64,9.77-5.97,14.45-.53,1.07-1.14,1.96-2.46,2.31-7.14,1.9-10.54,7.03-11.87,13.91-.2,1.06-.15,2.34-.74,3.11-4.22,5.54-7.75,11.71-13.27,16.12-4.93,3.94-8.42,2.56-9.53-3.65-1.29-7.29,.5-14.28,2.65-21.15,4.51-14.37,10.49-28.19,16.04-42.17,1.73-4.37,3.86-6.21,8.64-6.16,6.7,.08,6.63-.3,8.52-6.75,.6-2.05-.04-2.37-1.87-2.21-3.11,.27-6.24,.38-9.49,.57,3.05-6.99,6.08-13.79,9-20.63,2.73-6.42,6.21-12.51,8.37-19.18,.66-2.05,.18-2.82-2.11-2.54-4.1,.5-8.22,.94-12.34,1.1-2.33,.09-3.45,1.07-4.33,3.11-4.79,11.21-9.92,22.29-14.46,33.6-1.77,4.41-4.04,6.83-8.91,6.15-2.23-.31-3.23,.77-3.93,2.89-1.97,6-2.09,5.96,4.19,5.73,3.09-.11,3.12-.1,1.79,2.79-5.83,12.59-10.97,25.46-15.53,38.57-1.89,5.44-3.1,11.18-7.14,15.69-2.29,2.55-4.2,5.45-6.39,8.1-2.44,2.95-4.97,5.84-7.55,8.68-.76,.83-1.69,1.97-3,1.42-1.5-.62-1.17-2.18-1.04-3.39,.18-1.65,.51-3.31,1-4.89,3.19-10.25,7.47-20.09,11.54-30,2.73-6.63,5.67-13.18,8.56-19.75,.83-1.88,.57-2.63-1.69-2.4-3.42,.36-6.87,.69-10.3,.68-2.45,0-3.69,1.17-4.82,3.09-3.6,6.14-5.98,12.83-8.98,19.23-2.12,4.53-3.13,9.53-6.12,13.68-2.87,3.99-5.58,8.1-8.44,12.1-2.98,4.16-6.35,8.01-9.82,11.78-.92,.99-2.01,2.27-3.49,1.48-1.27-.68-1.12-2.24-.89-3.49,.37-2.03,.79-4.06,1.44-6.01,3.04-9.15,6.63-18.09,10.36-26.98,2.97-7.07,6.07-14.08,9.13-21.11,.74-1.7,.64-2.5-1.59-2.25-3.32,.38-6.67,.66-10.01,.66-2.51,0-3.99,1.08-5.16,3.15-4.15,7.31-7.4,15.05-9.84,23.01-3.73,12.16-12.21,21.17-19.38,31.06-1.11,1.54-3.27,4.12-4.7,3.22-1.76-1.1-.37-3.93,.27-5.96,1.62-5.14,4.8-9.45,7.58-13.96,5.01-8.14,8.49-16.64,7.01-26.49-1.04-6.92-5.92-10.58-12.74-9.43-2.17,.37-4.08,1.42-5.92,2.56-2.55,1.58-5.06,3.21-8.16,5.18,.83-2.59,1.4-4.54,2.09-6.45,.53-1.49,.11-1.9-1.43-1.78-3.63,.29-7.26,.59-10.9,.62-2.08,.01-3.09,.79-3.95,2.67-5.04,11.1-10.5,22-15.36,33.19-2.01,4.63-5.68,7.99-10.43,10.34-.31-1.4,.44-2.05,.8-2.79,3.85-7.94,6.49-16.24,7.69-24.98,1.07-7.84-.93-11.81-8-14.25-3.03-1.04-5.81-2.36-9.07-1.28-.7,.23-1.32-.18-1.97-.41-6.27-2.25-12.15-1.4-17.75,2.16-4.39,2.79-7.92,6.46-11.06,10.52-9.73,12.57-14.91,26.17-10.25,42.33,4.53,15.71,20.95,20.91,33.5,10.39,3.4-2.86,6.52-5.97,9.17-9.55,.46-.62,.82-1.63,1.63-1.6,3.32,.14,6.5-.69,9.92-1.68-.89,4.71-1.33,9-1.71,13.29-.15,1.7,.39,2.28,2.11,2.13,3.92-.32,7.85-.61,11.78-.69,1.8-.04,2.38-.75,2.49-2.41,.62-9.02,3.34-17.55,6.11-26.07,3.66-11.27,12.03-18.88,20.56-26.33,1.46-1.27,3.7-2.44,5.37-.89,1.74,1.61,.38,3.74-.64,5.38-4.96,7.97-8.6,16.57-12.27,25.16-.98,2.29-1.53,4.66-1.65,7.14-.5,10.61,7.05,18.39,16.61,17.15,4.82-.62,8.3-3.34,11.22-6.98,1.25-1.56,2.48-3.14,3.84-4.86,.43,.75,.67,1.17,.9,1.59,5.26,9.32,15.24,11.14,23.43,4.26,3.39-2.85,6.25-6.15,8.22-10.67,.91,2.36,1.81,4.17,2.95,5.86,4.27,6.34,9.56,8.16,16.86,5.86,4.63-1.46,7.9-4.69,10.79-8.36,1.85-2.34,3.55-4.79,5.48-7.41,.47,1.2,.76,2.02,1.1,2.81,3.57,8.17,9.98,12.67,18.41,12.05,8.86-.66,16.03-4.78,21.2-12.15,1.01-1.44,1.99-3.8,3.22-3.97,1.46-.2,2.12,2.46,3.39,3.64,.58,.53,1.05,1.17,1.62,1.72,5.58,5.42,15.36,8.99,22.94,4.37,3.65-2.22,7.86-3.56,11.16-6.45,.71-.62,1.57-.84,2.44-.96,2.92-.38,5.41-1.74,7.78-3.35,9.58-6.51,15.26-15.93,19.6-26.34,.32-.76,.49-1.38-.29-2.09-2.25-2.05-6.16-1.84-8.1,.54-4.41,5.4-8.59,10.96-12.42,16.78ZM37.58,297.95c-.89-13.43,4.13-26.8,14.14-35.72,20.11-17.92,43.42-19.23,68.13-12.31,1.67,.47,1.15,1.05,.22,1.92-2.94,2.77-5.54,5.84-7.97,9.07-11.75,15.66-18.74,33.79-26.62,51.43-3.76,8.43-6.76,17.21-10.2,25.79-4.4,10.96-9.4,21.64-15.8,31.61-1.21,1.88-2.42,2.33-4.56,1.74-4.35-1.21-8.77-2.23-13.2-3.15-8.06-1.67-16.14-2.52-24.18,.2-7.94,2.69-12.21,8.83-11.18,16.24,.74,5.3,4.07,8.82,8.4,11.52,3.49,2.18,7.27,3.09,11.48,3.11,9.35,.05,18.5-.35,26.78-5.46,3.01-1.86,6.14-3.55,8.86-5.84,1.24-1.04,2.49-1.3,4.07-1.08,5.94,.85,11.87,1.79,17.84,2.34,20.05,1.83,38.19-3.48,53.6-16.32,22.56-18.8,33.29-43.68,34.38-72.66,.79-21.07-4.89-39.76-23.1-52.71-1.64-1.16-.48-1.71,.42-2.3,4.09-2.71,7.93-5.85,12.65-7.5,1.58-.55,1.43-1.32,.44-2.35-.71-.73-1.54-1.27-2.5-1.51-4.8-1.17-9.57-2.22-14.42,0-2.85,1.31-5.88,2.27-8.54,3.97-1.43,.91-2.55,.8-4.08,.17-7.56-3.13-15.46-5.06-23.58-6.02-15.53-1.84-30.64-.03-45.19,5.77-18.89,7.53-33.57,19.61-40.83,39.19-4.75,12.83-4.94,25.55,3.44,37.12,6.14,8.48,14.27,13.56,25.29,11.72,6.06-1.01,11.28-4.03,15.9-7.98,12.29-10.51,19.34-23.58,19.27-40.08,0-1.97-.36-2.52-2.26-1.56-2.55,1.28-5.15,2.47-7.77,3.57-1.24,.52-1.86,1.24-1.94,2.61-.18,3.19-1.21,6.17-2.52,9.05-3.93,8.6-9.53,15.82-17.7,20.79-3.74,2.27-7.79,3.24-11.56,.17-3.58-2.91-6.5-6.33-5.62-11.54,.2-1.15,.03-2.36,.03-3.04Zm44.85,12.43c-.02-.09-.04-.17-.07-.26-.04,.11-.07,.23-.11,.34,.06-.03,.12-.06,.17-.08Z"/>
      <path class="cls-2" d="M329.92,88.05c-.15,0-.29-.04-.41-.14-.19-1.31-.94-2.08-2.25-2.3-.53-1.5-1.8-.96-2.85-1.05-.89-.66-1.83-.13-2.75-.15-1.67-.02-3.44,.19-4.56-1.51,2.98-.04,5.26-1.7,7.62-3.22,2.42-.72,3.87-2.15,3.55-4.87,.32-.56,.65-1.13,.97-1.69,.7,.03,1.41,.07,2.11,.1-.08,1.27-.02,2.57-.28,3.8-.55,2.57-.12,4.83,1.43,6.95,4.84,6.59,11.26,9.56,19.42,8.63,.53,.83,.92,.67,1.2-.18l1.77-.36c.62,.9,1.62,.49,2.44,.72,.71,.19,1.59,.89,2.08-.09,.45-.9,.39-1.93-.68-2.55,1.83-2.03,4.24-3.63,5.39-6.17,4.21-9.36,8.34-18.63,9.52-29.13,1-8.91-5.17-17.77-14.53-19.29-6.67-1.08-12.8-.67-16.21,6.54-.49,1.03-1.4,1.87-2.12,2.8q-1.99,.1-3.09-2.42c-.01-1.35-.03-2.71-.04-4.06,1.29-2.82,.7-5.46-1.43-6.44-1.2-1.55-2.34-3.22-4.04-4.24-5.22-3.1-11-4.52-16.94-3.95-5.7,.55-10.16,3.48-11.96,9.41-1.48,4.88-3.02,9.75-4.54,14.62-1.42,.1-1.62,1.06-1.76,2.25-.25,2.06-.66,4.09-1.01,6.14-.67-.59-.64-1.08-.73-1.54-.62-3.04,.89-6.21-.55-9.2-.02-.79-.04-1.57-.06-2.36,.21-.31,.37-.71,.65-.93,3.82-2.88,3.81-7.29,4.55-11.39,.24-1.33,.06-2.56-1.51-3.05-1.05-7.21-4.52-10.52-11.8-11.11-3.13-.25-6.27-.49-9.4-.52-8.56-.09-13.81,4.17-15.61,12.52-2.14,9.95-2.72,20.03-2.13,30.14,.26,4.49,1.24,8.97,5.74,11.52-.56,3.34-2.49,1.55-3.88,.91-2.19-1.02-4.08-2.82-6.48-3.23-2.1-.35-4.31-.04-6.46-.09-1.24-.03-2.16,.18-2.11,1.7,0,0,.08,.25,.08,.25-.38-.03-.75-.07-1.13-.1-.86,.02-1.82-.38-2.43,.6,0,0,.01-.02,.01-.02-1.47,.01-2.94,.03-4.41,.04-1.29,.08-2.59,.15-3.88,.23-.2-.09-.41-.18-.61-.27-.15-.77-1.56-.39-1.4-1.51,1.97-.94,4.24,.45,6.11-.87,1.42-.11,1.63-1.35,2.16-2.29,1.23-1.26,1.25-2.52-.03-3.76,.11-.36,.21-.71,.32-1.07,.66-.09,1.03-.44,1.1-1.14,.38-3.57,.94-7.13,1.11-10.71,.06-1.32,1.11-3.2-1.02-4.09,.08-1-.53-2.12,.46-2.98,1.28-.08,1.05-1.06,1.26-1.91,1.14-4.61,.41-9.34,.99-14.01,.43-3.46,.9-7.17-.49-10.66,.07-.38,.15-.77,.22-1.15,.46-.09,1.11-.15,1.07-.71-.06-.74-.71-.28-1.11-.31-1.14-4.03-1.14-3.99-5.2-3.54-1.85,.21-3.72,.3-5.59,.31-1.17,0-1.77,.27-1.88,1.59-.27,3.3-.74,6.59-1.01,9.89-.34,4.24-.57,8.48-.85,12.8-1.22-.35-1.08-1.19-1.3-1.77-2.44-6.56-4.3-13.29-5.87-20.1-.53-2.3-1.83-3.07-3.93-3.04-3.44,.05-6.89,.31-10.32,.15-2.24-.11-2.63,.76-2.55,2.71,.26,6.79-.31,13.56-.83,20.33-1.39,1.82-1.38,7.65,.02,9.43,.05,1.58,.09,3.17,.14,4.75-.69,.6-.68,1.18,.04,1.74,0,.79,.02,1.58,.02,2.37-.5,.08-1.04,.25-1.08,.79-.23,3.09,.16,6.16,.45,9.23,0,.41,0,.82-.01,1.23-.69,.57-.69,1.15,0,1.73,0,.4,0,.81,0,1.21-2.47,.3-3.48-.95-3.48-3.28,0-5.6,.02-11.19-.02-16.79,0-1.03,.4-2.19-.66-3.01,.03-1.76,.06-3.52,.09-5.28,1.04-.1,1.31-.84,1.15-1.66-.49-2.63,.3-5.13,.54-7.69,.23-2.47,.54-5.15-1.59-7.18-.03-.64-.33-1.32,.35-1.82,1.13-.89,.91-1.87,.21-2.89,.02-.6,.04-1.2,.06-1.8,2.03-1.19,1.01-3.11,.83-4.61-.13-1.09-1.73-1.79-2.77-1.59-1.15,.22-2.56-.16-3.51,.9-2.48,.15-5.02-.45-7.41,.67-1.48-.07-1.45,.96-1.44,1.98,.08,12.57-.01,25.13-.58,37.68-.04,.96-.19,2.05,1.25,2.21,0,.58,0,1.16-.01,1.74-1.69,1.43-1.81,5.84-.21,7.67,0,.6,0,1.19,0,1.79-.89,.06-1.79,.12-2.68,.18-.07-.39-.14-.78-.21-1.16,.24-1.4-.14-2.89-.79-3.88-.73-1.12-.58-3.54-3.04-2.99l-.05-.13c.37-.55,.21-1.03-.04-1.62-1.69-3.93-4.29-7.3-6.69-10.78-.96-1.4-1.25-3.63-3.6-3.77l.03,.02c.18-1.74,.36-3.48,.54-5.22,1.09-2.99,3.08-5.45,4.75-8.1,2.29-3.66,4.64-7.28,6.84-11,1.44-2.44,1.01-2.9-1.71-3.11-2.98-.23-5.84,.8-8.79,.58-1.69-.12-2.73,.56-3.51,2.07-2.69,5.24-5.46,10.43-8.23,15.63-.47,.89-.55,2.13-1.94,2.45-.12-.28-.3-.51-.32-.75-.36-5.39-.87-10.78-.95-16.18-.03-2.22-.73-2.78-2.69-2.65-2.45,.16-4.91,.26-7.36,.34-3.8,.13-4.79,1.36-4.11,5.16,.62,3.47,1.33,6.93,1.85,10.41,1.71,11.44,3.31,22.91,3.83,34.48-.73,.64-.78,1.22,.15,1.72,.55,.24,.6,.69,.49,1.21-.94,.86-.86,2.12-1.09,3.19-.27,1.23-.85,1.61-1.95,1.59-.52,.2-1.05,.41-1.57,.61-.97-.04-1.85-.1-2.77,.56-2.62,1.88-4.7,4.68-8.31,4.95-.59,.04-.81,.79-.87,1.4-.59,.02-1.18,.05-1.76,.07-5.25-1.64-10.54-2.36-15.99-1.07-1.67,.39-3.56,1.73-4.77-.79-4.08-17.3-8.2-34.59-12.17-51.92-.5-2.19-1.37-2.81-3.41-2.31-2.77,.67-5.54,1.35-8.34,1.86-1.94,.35-2.36,1.28-1.9,3.1,.68,2.66,1.16,5.36,1.73,8.05-.18,.22-.54,.47-.51,.66,.68,5.28,2.3,10.36,3.46,15.54,.21,.92,.88,.9,1.56,.94,.07,.39,.14,.78,.21,1.17-.85,1.25-1.34,2.42,.72,2.98,.38,.53,.57,1.1,.45,1.76-.27,.09-.77,.19-.77,.27,.14,2.84,.77,5.59,1.79,8.24,.05,.14,.68,.05,1.05,.07l.11-.02c.1,2.36-3.25,1.83-3.37,4.01,0,0-.25-.09-.25-.09-3.5,.18-6.9,.73-10.19,2.09-2.1,.87-4.14,1.15-4.4-2.23-.09-1.16-.04-2.94-2.1-2.89-.47-.73-.83-1.49-.72-2.39-.55-3.58-.32-7.34-2.4-10.57-1.04-1.61-1.19-3.36-1.39-5.23-.23-2.21-.58-4.6-2.75-6.04-.36-.55-.63-1.12-.5-1.8,.78-1.94,.79-3.65-1.41-4.7-.22-.08-.3-.23-.25-.46,.93-1.92-.03-5.36-1.69-6.14-.89-.42-1.22,.13-1.51,.8-.11,.16-.26,.21-.45,.15-1.94-1.11-5.42-.06-7.23,2.18-.1,.17-.26,.25-.46,.24-1.64-1.2-3,.13-4.47,.54-.58-.95-.39-1.69,.41-2.35,5.37-4.41,11.09-7.42,18.39-5.12,1.43,.45,3.19,.37,4.67,0,1.57-.39,3.65-.54,3.86-2.92,0,0-.01,.02-.01,.02,4.89-.5,9.62-1.66,14.09-3.72,1.57-.72,3.06-1.3,4.76-.69,1.21,.43,2.29,.58,3.04-.75,.42,0,.85,0,1.27,0,.35,.16,.68,.43,1.04,.45,4.47,.28,8.41-2.21,12.8-2.44,1.08-.06,.8-1.14,.77-1.91,.45-.48,1.02-.5,1.62-.44,.98-.03,2.07,.22,2.9-.14,4.12-1.79,8.57-1.23,12.74-1.27,3.61-.04,6.16-.97,8.56-3.25,.66-.62,1.33-1.02,2.29-1.17,4.49-.68,9-.59,13.5-.55,.67,0,1.41,.03,2.01,.3,3.3,1.5,5.62,1.22,8.3-1.37,2.16-2.09,4.73-2.97,7.65-3.07,4.99-.17,9.98-.16,14.99-.44,8.97-.5,17.99-.14,27-.15,.8,0,1.67-.04,2.18,.65,1.4,1.86,3.72,2.05,5.56,3.06,3.4,1.87,4.25,1.18,4.11-2.74,.16-.35,.33-.7,.49-1.05,5.13-.96,10.24,.51,15.37,.1,1.45-.11,2.88,.14,4.33,.41,2.74,.5,5.29,2.31,8.26,1.31,.78,.12,1.55,.24,2.33,.35,.49,1.59,1.85,1.78,3.22,2.06,8.36,1.71,16.68,3.62,25.08,5.11,3.22,.57,6.27,1.92,9.59,1.91,0,0-.02-.02-.02-.02,.3,1.54,1.07,2.88,1.97,4.11,1.89,2.59,3.15,2.43,5.05-.53,0,0-.01,0-.01,.01,4.33-1.52,8.56-.87,12.74,.61,.09,.03,.2,0,.29,.02,4.78,.91,9.7,1.29,14.26,3.03,2.21,.84,4.58,1.91,6,3.95,2.69,3.86,3.51,4.26,8.25,3.29,2.22-.45,4.75-.92,6.66,.12,3.88,2.1,8.22,2.86,12.12,4.85,3.76,1.92,8.01,2.81,10.7,6.7,1.08,1.56,3.25,2.63,5.72,2.32,2.23-.29,4.52-.07,6.78-.06,1.71,.01,3.38,.31,4.6,1.59,1.74,1.83,3.7,2.71,6.22,2.02,0,0,.14,.12,.14,.12,.74,1.7,2.2,2.6,3.73,3.44,.73,.4,2.02,.58,1.88,1.56-.18,1.29-1.65,.5-2.43,.95-4.16-1.17-8.18-2.7-12-4.75-2.04-1.09-3.32-.96-3.83,1.87-.48,2.66-1.65,5.22-2.67,7.77-5.32,13.3-11.57,26.19-17.55,39.19-.53,1.14-1.33,2.16,.29,3.24,4.64,3.1,8.85,6.84,13.85,9.41-2.45,1.57-5.45,1.19-7.13-1.07-.86-1.16-1.79-2.08-3.26-2.11-1.49-.03-2.42-.9-3.01-2.01-.96-1.84-2.52-2.49-4.38-2.79-.1-.78-.55-1.14-1.32-1.13-.39-.31-.77-.61-1.16-.92-2.2-2.78-5.66-3.46-7.6-1.49-.59-.04-1.18-.08-1.78-.11-2.52-1.93-5.2-3.38-8.55-2.68-.29-.01-.59-.03-.88-.04-.28-.58-.79-.66-1.35-.59-.16,.02-.3-.01-.43-.11-.31-1.84-1.68-2.16-3.22-2.22-.5-.28-1-.55-1.51-.83-.1-.85-.63-1.08-1.4-.96-.15,0-.27-.04-.37-.15-.07-.85-.57-1.15-1.37-1.05ZM106.18,31.95c-.21,11.5,3.38,22.15,7.6,32.72,2.24,5.61,6.28,7.98,11.85,8.45,3.58,.3,7.14-.24,10.39-1.71,3.58-1.62,6.74-4.02,7.13-8.33,.36-4.01,.25-8.06,.37-12.09,.07-2.17-1.16-3-3.11-3.05-2.26-.06-4.53,.04-6.79-.07-2.37-.12-2.82,.73-2.23,3,.65,2.51,1.43,5.14,0,7.75-1.7,3.08-4.19,3.25-6.06,.31-1.44-2.25-2.41-4.73-3.34-7.21-2.23-5.96-3.57-12.11-2.76-18.49,.37-2.9,1.21-6.64,4.37-6.99,3.44-.38,4.12,3.35,4.69,6.13,.4,1.98,1.36,2.63,3.25,2.35,.87-.13,1.77-.04,2.65-.12,6.69-.59,5.57,.44,5.6-5.91,.01-2.19,.58-4.53-1.25-6.45-3.36-3.53-7.28-5.95-12.16-6.67-7.29-1.08-12.88,2.41-18.22,6.69-3.38,2.71-1.45,6.4-1.99,9.7Z"/>
      <path class="cls-11" d="M440.61,317.21c-3.08-.71-4.81-3.72-4.78-8.32,7.8-9.14,13.1-19.6,16.49-31.09-2.34,1.9-4.34,4.03-6.8,5.67-4.73,3.14-10,4.86-15.49,6.03-3.49-1.52-6.82,.04-10.21,.55-1.75-.07-3.5-.15-5.26-.22-.19-.29-.39-.29-.59,0-.38-.02-.75-.03-1.13-.05,0-.68-.06-1.37,0-2.05,.18-2.52,.99-4.01,4.1-3.79,2.51,.18,5.22,.89,7.67-.56,.98-.11,1.97-.21,2.95-.32,.66,.6,1.25,.56,1.75-.21,.32-.06,.64-.12,.96-.18,1.79,.37,3.37-.37,4.98-.95,.21-.23,.43-.45,.64-.68,.39-.14,.77-.28,1.16-.42,3.36,1.54,4.14-1.57,5.76-3.19l.07,.16-.09-.15c2.3-.85,4.42-1.87,4.69-4.73,3.01-1.64,4.3-4.38,4.86-7.59,.25-.36,.5-.72,.75-1.09,3.74-2.71,4.68-6.68,4.54-10.91-.25-7.98-.57-15.93-2.73-23.76-1.43-5.17-2.94-10.31-4.57-15.42-.25-.77-.23-1.87-1.47-1.93-.16-.4-.32-.8-.48-1.2-.15-3.24-1.59-5.88-3.75-8.19h.01c0-1.03,.27-2.06-.57-3.02-1.41-1.59-2.04-3.72-3.21-5.39-1.79-2.57-1.92-6.49-5.71-7.52v.02c.13-.96-.24-1.57-1.21-1.77v.02c.18-.98-.18-1.61-1.2-1.78v.02c.35-1.34-.65-2.46-1.26-3.13-1.81-2-2-5.62-5.6-5.89-.14-.05-.22-.16-.24-.31,.31-1.41-.15-2.15-1.69-1.97h0c-.39-1.71-1.27-3-3.06-3.5-.37-.37-.74-.75-1.11-1.12-1.84-3.26-3.49-6.7-7.51-7.88l-.03-.02c.08-1.21-.61-1.96-1.47-2.7-2.92-2.53-5.62-5.31-8.64-7.75-1.5-1.21-2.12-3.57-4.72-3.04h0c-.26-.16-.51-.34-.77-.51-.17-.02-.29-.11-.36-.28-.35-1.86-2.01-2.7-3.3-3.55-2.86-1.9-5.2-4.68-8.74-5.5l.19-.15-.2,.14c-1.01-2.07-2.92-3.16-4.74-4.33-5.03-3.22-10.14-6.31-15.02-9.74-1.49-1.05-2.74-1.76-4.51-1.35-.15,.01-.26-.05-.33-.19-.01-1-.85-1.23-1.52-1.59-3.6-1.88-7.24-3.71-10.82-5.64-4.69-2.52-9.51-4.85-14.29-7.12-3.99-1.9-8.31-3.49-12.66-4.79-4.54-1.36-8.83-3.6-13.3-5.15-6.21-2.17-12.75-3.39-19.01-5.51-.93-.31-1.9-.55-2.79,.15-.39-.09-.78-.19-1.17-.28-5.26-2.55-10.87-4.02-16.63-4.75-1.28-.16-2.76-1.46-4.11-.04-.39-.06-.78-.12-1.17-.18-1.2-1.67-2.86-1.02-4.41-.88-.7-.08-1.39-.16-2.09-.24-.34-.33-.67-.91-1.03-.94-6.06-.47-11.97-2.37-18.13-1.79-.71-.04-1.41-.07-2.12-.11-.69-.93-1.49-.83-2.34-.24l-1.73-.16c-1.48-1.46-3.13-.92-4.77-.38-2.56-.17-5.13-.34-7.69-.51-.24-.16-.46-.42-.71-.46-5.78-.78-11.59-.66-17.39-.64-.62,0-1.15,.14-1.44,.76-1.37,.04-2.73,.09-4.1,.13-3.56-.83-7.17-.1-10.74-.31-.7-.04-1.38,.03-1.69,.83-1.36,.08-2.72,.15-4.09,.23-1.28-.66-2.53-.99-3.59,.38-.77,.07-1.54,.13-2.31,.2-2.12-1.07-4-.12-5.9,.7-.39,.03-.77,.07-1.16,.1-1.33-1.47-2.78-.41-4.09-.06-3.16,.83-6.64,.36-9.52,2.32-.39,.04-.77,.08-1.16,.12-1.83-.79-3.44-.56-4.75,1.02-.38,.07-.76,.14-1.15,.21-.86-1.12-1.45-.92-1.8,.38-13.74,3.12-27.13,7.36-40,13.09-20.1,8.95-37.99,20.98-52.06,38.15-15.28,18.66-22.53,40.04-21.32,64.21,.1,2.09,.62,4.05,1.42,5.99,4.59,11.1,12.59,19.07,22.8,25.03,.13,.36,.37,.53,.76,.47,.15,.03,.27,.09,.39,.19,.24,.14,.48,.28,.71,.42h.06c-.46,3.92-3.57,3.56-6.27,3.86-5.67-2.97-10.37-7.2-15.42-12.37,1.91,6.78,4.35,12.4,6.88,17.98-.95,3.46-3.66,5.35-6.42,7.21-6.98-13.48-11.78-27.7-13.42-42.78-2.85-26.23,3.65-50.09,19.38-71.32,17.93-24.2,42.35-39.36,70.09-49.76,6.43-2.41,13.02-4.38,19.53-6.56,.39-.06,.78-.09,1.16-.18,24.61-6.26,49.61-9.2,74.99-8.82,4.71,.07,9.42,.21,14.13,.32,3.7,.25,7.4,.5,11.1,.75,.4,.29,.83,.27,1.26,.08,1.55,.48,3.14,.62,4.76,.49,1.14,.47,2.33,.56,3.55,.48,.39,.04,.78,.08,1.18,.12,.36,.36,.76,.38,1.19,.15,10.08,1.7,20.23,2.97,30.21,5.21,48.36,10.87,92.95,29.92,131.47,61.63,21.94,18.07,40.17,39.34,51.55,65.75,9.47,21.99,12.73,44.77,7.11,68.34-3.85,16.14-11.25,30.54-22.42,42.91Z"/>
      <path class="cls-6" d="M360.87,100.33c1.86,.3,3.42,.96,4.38,2.79,.58,1.11,1.52,1.98,3.01,2.01,1.47,.03,2.4,.95,3.26,2.11,1.68,2.26,4.67,2.64,7.13,1.07,8.58,2.33,15.8,.24,21.85-6.35,8.07-8.79,11.55-19.69,14.32-30.88,.85-3.43-.05-6.87-2.29-9.75-3.23-4.16-7.16-7.51-11.97-9.76,.79-.45,2.25,.34,2.43-.95,.14-.98-1.15-1.16-1.88-1.56-1.53-.85-3-1.74-3.73-3.44,7.32,3.89,14.16,8.47,18.51,15.74,3.54,5.93,2.88,12.21,.36,18.41-2.84,6.99-5.77,13.97-9.75,20.37-5.25,8.43-13.04,14.19-25.99,11.32-2.19-.49-4.43-.72-6.65-1.07-.2-.14-.4-.27-.59-.41-.37-.07-.73-.14-1.1-.21-.23-.17-.47-.34-.7-.51-1.11-.7-2.07-1.66-3.45-1.85-.23-.18-.46-.36-.69-.54-1.99-1.78-3.99-3.55-5.98-5.33-.17-.19-.35-.37-.52-.56,0,0-.05-.04-.04-.04,.02-.19,.03-.38,.02-.56l.07-.08Z"/>
      <path class="cls-6" d="M90.89,69.84c.11-2.18,3.47-1.65,3.36-4.01,.89,3.37,1.76,6.75,2.67,10.12,.29,1.08,.49,2.87,1.92,2.41,3.77-1.2,7.89-.95,11.44-2.91,1.21,2.53,3.1,1.19,4.77,.79,5.45-1.29,10.75-.57,15.99,1.07-1.96,.02-3.93,.19-5.88,.03-2.53-.2-5.01-1.05-7.58-.46-2.19,.51-4.29,1.29-6.49,1.81-4.26,1-8.39,2.5-12.58,3.8-.77,.16-1.55,.33-2.32,.49-6.14,1.47-12.62,1.94-17.81,6.14-4.51,.83-9,2.14-13.56,.08-1.98-.9-3.63-2.17-4.43-4.1-4.82-11.59-9.74-23.16-12.25-35.54-.31-1.52-.23-3.12-.33-4.68,2.65,2.77,2.31,6.62,3.37,9.93,1.73,5.42,2.75,11.01,5.16,16.3,1.16,2.54,2.98,4.76,3.64,7.73,.89,4,2.78,7.84,7.14,9.66,1.34,.56,1.24-.03,1.31-.87,2.02-.75,4.01-1.62,6.07-2.24,5.73-1.72,11.5-3.3,17.1-5.4q4-1.5,2.82-5.73c-.21-.76-.54-1.54-.51-2.29,.09-2.39-1.27-2.5-3.04-2.12Z"/>
      <path class="cls-2" d="M68.45,87.63c-.07,.83,.03,1.43-1.31,.87-4.36-1.83-6.25-5.67-7.14-9.66-.66-2.97-2.48-5.19-3.64-7.73-2.41-5.29-3.43-10.87-5.16-16.3-1.06-3.31-.72-7.16-3.37-9.93-.01-.4-.02-.8-.03-1.2,.76-.68,.79-1.28-.19-1.77-.43-.96-.37-1.95-.16-2.95,1.28-.06,.48-1.81,1.57-2.04,1.44,1.43,.2,4.51,3.15,4.91,2.93,8.32,5.91,16.63,8.76,24.98,1.92,5.64,3.66,11.34,5.49,17.02-.17,.09-.33,.17-.5,.26,.17-.01,.34-.03,.51-.04l-.09,.19c.15,.95,.02,2.02,1.13,2.55,.33,.28,.65,.57,.98,.85Z"/>
      <path class="cls-6" d="M227.24,3.3c.14,3.92-.7,4.6-4.11,2.74-1.85-1.01-4.16-1.2-5.56-3.06-.52-.69-1.38-.65-2.18-.65-9,0-18.02-.35-27,.15-5,.28-9.99,.27-14.99,.44-2.93,.1-5.49,.98-7.65,3.07-2.69,2.6-5,2.88-8.3,1.37-.59-.27-1.33-.29-2.01-.3-4.51-.04-9.02-.13-13.5,.55-.95,.15-1.63,.54-2.29,1.17-2.4,2.28-4.96,3.21-8.56,3.25-4.18,.04-8.63-.52-12.74,1.27-.83,.36-1.93,.11-2.9,.14,1.09-1.76,3.03-1.87,4.7-2.03,4.1-.37,8.2-1.14,12.34-.81,2.33,.19,4.06-.49,5.23-2.47,.95-1.6,2.27-2.24,4.14-2.25,4.52-.01,9.05,.18,13.55-.5,1.25-.19,2.54-.32,3.4,1.08,.57,.93,1.46,.82,2.32,.27,1.31-.83,2.8-1.32,3.98-2.45,2.01-1.94,4.49-2.46,7.3-2.46,10.51,.03,20.98-.89,31.46-1.34,6.36-.27,13.26-1,18.83,3.73,1.92,1.63,3.33,.79,4.56-.92Z"/>
      <path class="cls-6" d="M397.24,45.52c-2.52,.69-4.48-.18-6.22-2.02-1.22-1.28-2.89-1.58-4.6-1.59-2.26-.01-4.56-.23-6.78,.06-2.46,.32-4.64-.75-5.72-2.32-2.69-3.89-6.94-4.78-10.7-6.7-3.9-1.99-8.24-2.75-12.12-4.85-1.92-1.04-4.44-.57-6.66-.12-4.74,.96-5.55,.57-8.25-3.29-1.42-2.04-3.79-3.11-6-3.95-4.56-1.73-9.48-2.12-14.26-3.03-.1-.02-.2,0-.29-.02-4.19-1.48-8.41-2.13-12.74-.61,1.64-2.04,3.88-3.15,6.36-2.55,7.03,1.7,14.17,2.93,21.16,4.88,3.43,.96,6.12,2.53,7.81,5.66,.97,1.79,2.14,2.44,4.29,1.72,6.12-2.06,11.52,.59,16.88,3.03,2.86,1.3,5.62,2.77,8.64,3.71,3.07,.95,5.74,2.45,7.52,5.28,1.06,1.68,2.85,1.65,4.51,1.44,6.55-.85,12.03,1.65,17.19,5.29Z"/>
      <path class="cls-6" d="M317.1,82.91c1.12,1.71,2.89,1.49,4.56,1.51,.92,.01,1.86-.52,2.75,.15-.58,1.09-1.64,.95-2.59,.94-5-.09-9.75-1.24-14.56-2.68-5.46-1.63-10.14-5.51-16.12-5.51-.5-.6-1.2-.67-1.88-.6-8.76,1.01-17.02-1.66-25.42-3.36-2.34-.47-4.55-1.24-6.4-2.76-2.57-2.11-5.36-1.9-8.25-.94-1-.02-1.99-.04-2.99-.07-.05-1.51,.87-1.73,2.11-1.7,2.16,.05,4.36-.26,6.46,.09,2.41,.4,4.29,2.21,6.48,3.23,1.39,.64,3.32,2.43,3.88-.91,4.98,2.46,10.17,4.08,15.78,4.33,3.17,.14,5.8-.64,7.71-3.29,0,.48,.19,1.12-.05,1.43-1.51,1.95-.25,2.37,1.36,2.93,3.86,1.34,8.15,.96,11.82,3.07,.21,.12,.9-.59,1.37-.91,4.35,2.53,8.68,5.14,13.98,5.06Z"/>
      <path class="cls-6" d="M52.17,41.83c-2.95-.4-1.71-3.48-3.15-4.91-1.1,.23-.29,1.98-1.57,2.04-.1-2.25-.33-4.5-.25-6.74,.06-1.94,.99-3.34,2.8-4.47,3.31-2.06,6.98-3.05,10.57-4.31,1.76-.62,3.52-.5,5.17,.19,2.96,1.24,5.8,1.77,8.6-.4,.41-.31,1.14-.21,1.72-.3-.21,2.37-2.3,2.53-3.86,2.91-1.48,.37-3.24,.44-4.67,0-7.3-2.3-13.02,.71-18.39,5.12-.8,.66-.98,1.4-.41,2.35,1.47-.41,2.83-1.73,4.47-.54-3.33,.64-3.75,2.37-2.14,5.17,.65,1.14,.76,2.58,1.11,3.89Z"/>
      <path class="cls-6" d="M295.91,13.51c-3.32,0-6.37-1.35-9.59-1.91-8.4-1.49-16.72-3.4-25.08-5.11-1.37-.28-2.72-.47-3.22-2.06,7.45,1.57,14.88,3.19,22.34,4.7,4.02,.81,8.08,1.43,12.13,2.12,1.48,.25,2.93,.51,3.41,2.27Z"/>
      <path class="cls-6" d="M255.7,4.07c-2.97,1.01-5.52-.81-8.26-1.31-1.45-.27-2.88-.52-4.33-.41-5.13,.41-10.24-1.06-15.37-.1,.23-1.43,.89-2.4,2.5-2.23,8.29,.88,16.75,.63,24.75,3.57,.26,.1,.48,.31,.72,.48Z"/>
      <path class="cls-6" d="M97.94,17.79c-.75,1.33-1.84,1.18-3.04,.75-1.7-.61-3.19-.03-4.76,.69-4.47,2.05-9.2,3.21-14.09,3.72,1.93-2.67,5.07-2.63,7.8-3.29,2.47-.59,4.89-1.19,7.23-2.19,2.32-1,4.66-1.5,6.86,.32Z"/>
      <path class="cls-6" d="M113.82,13.9c.03,.76,.31,1.85-.77,1.91-4.39,.23-8.33,2.72-12.8,2.44-.35-.02-.69-.3-1.04-.45,1.81-1.35,4.07-1.39,6.12-1.69,2.94-.44,5.77-1.04,8.49-2.2Z"/>
      <path class="cls-6" d="M340.45,94c3.35-.7,6.03,.75,8.55,2.68-3.25,.37-6.01-.82-8.55-2.68Z"/>
      <path class="cls-6" d="M302.91,17.07c-1.9,2.96-3.17,3.12-5.05,.53-.9-1.23-1.66-2.57-1.97-4.11,1.02,.13,1.5,.9,1.86,1.71,1.08,2.44,2.73,3.2,5.16,1.87Z"/>
      <path class="cls-6" d="M358.38,98.29c-1.19-.15-2.18-1.11-3.48-.83-1.35-.36-2.87,.33-4.13-.67,1.94-1.97,5.4-1.29,7.6,1.49Z"/>
      <path class="cls-1" d="M79.56,314.61c.67-1.16,1.33-2.31,2.4-4.17,.09,2.62-.77,4.12-1.32,5.7-.36-.51-.72-1.02-1.09-1.53Z"/>
      <path class="cls-6" d="M334.56,91.04c1.54,.06,2.91,.37,3.22,2.22-1.42-.24-2.59-.83-3.22-2.22Z"/>
      <path class="cls-6" d="M327.27,85.62c1.31,.22,2.06,.98,2.25,2.3-1.27-.26-2.08-.96-2.25-2.3Z"/>
      <path class="cls-6" d="M47.6,41.91c.99,.49,.95,1.09,.19,1.77-.22-.57-.57-1.13-.19-1.77Z"/>
      <path class="cls-6" d="M331.66,89.25c.76-.11,1.3,.11,1.4,.96-.75,.09-1.13-.35-1.4-.96Z"/>
      <path class="cls-6" d="M243.87,70.48c-.39-.05-.77-.1-1.16-.15,.62-.98,1.58-.58,2.43-.6-.05,.17-.08,.35-.1,.53-.39,.08-.78,.15-1.17,.23Z"/>
      <path class="cls-6" d="M329.92,88.05c.8-.1,1.29,.2,1.37,1.05-.73,0-1.16-.38-1.37-1.05Z"/>
      <path class="cls-6" d="M359.62,100.39c-.02-.39-.05-.79-.07-1.18,.78-.02,1.22,.35,1.32,1.13,0,0-.07,.08-.07,.08-.19,.01-.36,.06-.52,.15-.22-.06-.43-.12-.65-.17Z"/>
      <path class="cls-6" d="M338.22,93.36c.57-.06,1.07,.01,1.35,.59-.54,.01-1.02-.14-1.35-.59Z"/>
      <path class="cls-12" d="M448.37,210.81c.16,.4,.32,.8,.48,1.2,1.45,4.78,3.17,9.5,4.29,14.36,2.89,12.53,6.21,25.12-.06,37.65-.25,.36-.5,.72-.75,1.09-2.42,2.02-3.21,5.08-4.86,7.59-1.74,1.4-3.33,2.96-4.69,4.73l.09,.15s-.07-.16-.07-.16c-1.92,1.06-3.84,2.13-5.76,3.19-.39,.14-.77,.28-1.16,.42-.22,.04-.44,.09-.66,.13-1.76,.16-3.43,.58-4.96,1.5-.32,.06-.64,.12-.96,.18-.58,.07-1.17,.14-1.75,.21-.98,.11-1.97,.21-2.95,.32-3-.65-6.05,0-9.07-.34-1.08-.12-2.11-.02-2.78-1.2-1.64-2.87-4.21-4.39-7.48-4.5-2.41-.08-1.91-1.19-1.18-2.61,3.7-7.16,7.39-14.31,11.03-21.5,1.01-2.01,2.02-4.05,2.68-6.19,1.72-5.56-1.01-10.79-6.62-12.13-4.49-1.07-9.11-1.29-13.72-.08-6.59,1.72-9.69,6.57-11.71,12.51-.89,2.6-1.86,5.18-2.83,7.75-.33,.88-.48,2-1.82,1.96-1.33-.23-1.55-1.41-2.02-2.37-.05-3.65-2.4-5.99-4.93-8.07-.86-.71-2.49-.85-3.33,.52-.59,.97-1.25,2.19,.63,2.69,.51,.21,.65,.64,.67,1.14-1.14,1.65-.47,2.26,1.29,2.26h-.05c.32,2.02,.86,3.9,3.01,4.76l-.02-.06c-.21,2.68,2.23,4.27,2.75,6.66-.24,.98-.48,1.95-.72,2.93-2.38,2-3.22,4.97-3.79,7.68-.51,2.43-1.39,3.65-3.66,4.18-2.18,.5-4.35,1.09-6.51,1.69-1.01,.28-2.19,.39-2.42,1.77-.12,.11-.26,.17-.43,.18-.81-.13-1.28,.18-1.35,1.02-.43,.4-.86,.81-1.29,1.21-1.2,.2-1.77,.84-1.46,2.1-.14,.48-.27,.97-.41,1.45-1.95,2.61-.78,7.1,2.12,8.16l-.06,.14s.07-.14,.07-.14c-.18,.57-.4,1.02-1.06,1.28-5.73,2.33-11.5,2.31-17.5,1-3.6-.79-6.71-2.52-9.98-3.93-6.4-2.75-13.32-4.21-19.39-7.74-2.23-1.3-3.76-3.6-6.5-4.27-3.55-.87-6.15-4.04-9.55-4.81-3.21-.72-6.05-1.86-8.82-3.45-.74-.42-1.52-.29-2.29-.4-6.02-.81-10.94,2.48-16.02,4.68-5.18,2.24-10.13,5.04-15.49,6.87-2.08,.71-4.32,1.83-6.35,1.59-4.01-.47-8.03-.1-11.93,.07-8.97,.41-17.43-1.86-26-3.56-6.17-1.22-11.55-4.52-17.21-7.13-6.85-3.16-13.72-6.09-18.71-12.08-.25-.3-.89-.27-1.35-.39-2.36-5.38-4.51-10.86-8.33-15.45-.95-1.14-.07-1.75,.61-2.45,1.5-1.55,3.03-3.07,3.68-5.23,2.04-6.69-3.37-13.39-11-13.59-5.06-.13-9.43,2.37-14.1,3.76-2.63,.78-5.19,1.78-7.79,2.64-.96,.32-1.93,.41-2.78-.33,2.15-4.85,5.2-9.19,7.78-13.79,.61-1.08,1.1-2.22-.38-3.01-1.31-.7-2.07,.22-2.62,1.16-2.93,4.98-5.81,9.99-8.71,14.99-12.16-4.24-24.62-6.8-37.57-6.3-6.96,.27-13.95,.44-20.77,2.14-1.53-1.37-3.4-.48-4.95-.4-5.16,.28-9.32-2.18-12.16-5.61-4.22-5.1-8.2-10.51-11.07-16.64-2.43-5.18-4.4-10.31-4.38-16.17,.03-7.55,2.83-14.44,4.75-21.52,2.29-8.44,6.71-15.93,11.4-23.21,2.59-4.01,5.59-7.81,9.4-10.78,4.78-3.73,9.6-7.42,13.82-11.75,3.52-3.61,7.28-7,11.4-9.75,5.15-3.43,10.67-6.41,15.84-9.8,6.62-4.34,14.15-6.38,21.23-9.38,5.52-2.33,11.86-3.17,17.87-4.29,9-1.68,18.15-2.51,27.17-4.26,7.35-1.43,14.9-1.46,22.33-2.15,8.63-.8,17.46-.94,26.18,.28,2.52,.35,5.03,.87,7.6,.61,1.44-.14,2.48-1.5,4.16-1.1,4.41,1.04,8.91,1.24,13.43,1.13,.88-.02,1.81-.08,2.64,.14,6.32,1.72,12.95,1.07,19.33,2.65,2.99,.74,6.02,1.59,8.86,2.58,1.84,.64,1.99,.43,2.48-.91,2.64,.16,5.01,1.62,7.69,1.58,.39,.09,.78,.19,1.17,.28,.95,.78,2.16,.88,3.28,1.19,17.23,4.77,34.09,10.56,50.23,18.34,6.97,3.36,13.92,6.75,20.89,10.12,.06,.14,.17,.21,.33,.19,3.06,1.92,6.13,3.83,9.18,5.77,5.04,3.2,10.06,6.43,15.09,9.65l.2-.14s-.19,.15-.19,.15c3.77,3.34,7.82,6.31,12.04,9.06,.06,.16,.18,.26,.36,.28,.26,.17,.51,.34,.77,.51,0,0,0,0,0,0,4.76,4.71,9.76,9.14,14.84,13.49,0,0,.03,.02,.03,.02,2.23,2.89,4.69,5.55,7.51,7.88,.37,.37,.74,.75,1.11,1.12,.71,1.44,1.59,2.73,3.06,3.51,0,0,0,0,0,0,.25,.92,.91,1.5,1.69,1.97,.01,.15,.09,.26,.24,.31,2.13,3.13,4.2,6.3,6.87,9.02,0,0-.01-.02-.01-.02,.17,.76,.45,1.43,1.21,1.78,0,0-.01-.02-.01-.02,.1,.8,.46,1.43,1.23,1.77,0,0-.01-.02-.01-.02,3.04,5.39,6.02,10.81,9.48,15.94,0,0-.01-.01-.01-.01,.77,2.95,2.2,5.6,3.75,8.19Zm-152-79.69l.03,.05c.02-.55-.04-1.04-.71-1.18v.1c.6-2.13-1.24-1.94-2.33-2.47v.09c.03-2.53-1.88-3.83-3.56-5.08-1.09-.81-2.71-.73-3.91,.07-1.05,.7-.99,2.17-.52,2.98,1.87,3.2,4,6.23,7.65,7.7h-.04c-.06,.54,0,1.04,.66,1.2v-.11c.76,2.39,1.97,4.34,4.68,4.83l-.04-.02c-.18,1.77,.62,2.8,2.38,3.01,1.26,.15,2.43,.05,2.28-1.72,0-.6,0-1.19-.01-1.79,.84-1.91-.59-2.04-1.82-2.34l.03,.03c-.19-2.64-1.88-3.96-4.18-4.74h.06c-.21-.2-.43-.41-.64-.62Zm-213.74,61.35c.24,.58,.73,.64,1.27,.62,.19-.02,.36,.01,.53,.09,.58,.7,1.15,.66,1.71-.03,.14-.06,.29-.09,.45-.07,1.76-.29,2.41-1.6,2.43-3.11,.01-1.33-1.15-1.81-2.3-2.28-2.26-.93-4.75-2.08-5.98-4.02-2.3-3.64-6.14-3.38-9.36-4.7h0c-.68-1.69-1.76-2.48-3.24-.97-1.09,1.12-1.12,2.75-.75,4.19,.35,1.37,1.64,1.49,2.87,1.46l-.02-.02c.95,2.83,2.94,4.19,5.91,4.16h0c.02,1.25,.92,1.2,1.8,1.18l-.02-.02c.32,2.07,1.82,2.68,3.61,2.92h-.06c.21,.57,.68,.65,1.21,.63l-.04-.02Zm282.89-34.75c.04,.48,.16,.92,.68,1.12v-.05c.95,2.92,3.55,4.41,5.61,6.33,.53,.49,1.48,.41,2-.44,1.46-1.2,2.21-2.42,.56-4.12-4.2-4.31-8.35-8.69-12.51-13.04-1.23-1.28-2.68-1.92-4.48-1.58-2.29,.71-1.61,2.9-.96,3.69,1.77,2.15,3.13,4.93,6.25,5.64l-.02-.02c.11,1.8,1.2,2.46,2.86,2.46l.02,.02Zm-28.34,98.02c.06,.77-.02,1.63,1.11,1.71,.88,.06,1.54-.38,1.96-1.06,.71-1.18,1.07-2.48,1.07-3.88-.01-6.83,0-13.66-.02-20.49,0-.92,.29-2.06-1.15-2.28-.16-1.18-.72-2.18-1.99-2.1-1.18,.07-2.28,.61-2.61,1.99-.28,1.14-.72,2.21-.73,3.43-.07,6.67,.99,13.3,.65,19.98-.06,1.19,.24,2.38,1.72,2.71ZM99.77,132.32h.02c-1.54,.03-2.24,1.14-2.65,2.35-.47,1.37-.97,3.08,.71,3.88,1.43,.68,3.07,1.06,4.37-.76,3.75-5.27,7.66-10.44,11.42-15.71,.83-1.17,1.58-2.57,.22-3.96l.02,.06c-.3-1.74-1.21-1.46-2.27-.68-.16,.08-.32,.1-.5,.06-.56,.07-1.4-.07-1.65,.24-2.24,2.81-4.89,5.39-5.59,9.15-.08,.09-.18,.11-.3,.08-2.45,.91-3.62,2.75-3.8,5.29Zm250.44,70.83c.38-.2,.59-.46,.33-.9l-.2-1.49c.63-2.14-1.05-1.61-2.06-1.71-2.43-.25-4.86,0-7.33-.35-4.44-.64-8.94-1.14-13.46-.85-1.46,.09-2.52,.71-2.63,2.22-.11,1.58,.86,3,2.31,2.9,3.21-.23,6.04,1.27,9.16,1.51,3.67,.28,7.35-.38,11,.39,1.23,.26,2.66,.18,2.85-1.67l.03-.06Zm-122.78,65.01c-1.02,.78-.92,1.58-.03,2.39l-.04,.19c1.99,2.03,3.76,1.73,5.72-1.18,3.06-4.53,6.56-8.71,9.98-12.97,1.41-1.76,3.35-3.63,3.2-6.4-.07-1.19-.22-2.17-1.51-2.52-1.18-.32-2.25-.39-3.15,.79-4.45,5.82-8.94,11.61-13.46,17.37-.6,.76-.9,1.49-.72,2.42l.02-.1Zm103.92-87.62c-.14,1.17,.68,1.7,1.55,1.73,1.23,.04,2.41-.66,2.8-1.79,.56-1.6,1.78-2.86,2.25-4.41,.72-2.38,3.51-3.93,2.72-6.87,1.17-2.25,2.31-4.51,3.51-6.74,.69-1.29,1.3-2.77-.26-3.6-1.56-.83-2.16,.78-2.76,1.85-3.08,5.47-6.11,10.97-9.22,16.42-.63,1.11-.65,2.23-.59,3.41Zm-149.49-9.61c-.14,5.04-.13,9.81,1.18,14.31,1.3,4.45,3.42,8.54,6.47,12.27,4.79,5.87,10.33,10.59,17.45,13.05,5.15,1.78,10.25,3.63,14.97,6.34,3.1,1.78,7.4,.92,9.63,4.49,7.33,2.12,14.7,3.7,22.43,3.71,5.69,0,11.01-1.46,16.3-3.05,2.46-.74,4.96-.65,7.43-1.28,5.31-1.36,9.61-4.63,14.59-6.53,1.69-.65,3.66-1.56,4.62-2.96,3.04-4.42,7.6-7.32,10.84-11.49,4.8-6.18,8.11-12.86,5.72-20.89-1.2-4.03-4.53-6.98-6.56-10.59-3.95-7.01-9.59-12.35-16.68-15.68-4.06-1.91-8.12-3.93-12.26-5.74-5.62-2.46-11.18-5-16.97-7.09-2.97-1.07-5.92-1.81-9-2.45-5.6-1.17-11.17-2.42-16.9-2.7-10.17-.49-19.97,2.4-30,3.21-6.88,.56-12.09,4.44-15.88,9.86-4.88,6.98-8.18,14.66-7.36,23.19Zm118.68,80.03c.25,0,1.1-.48,1.93-1.02,1.79-1.17,3.57-2.34,5.36-3.49,4.19-2.7,8.38-5.38,12.57-8.07,1.35-.87,1.89-2.15,1.17-3.54-.92-1.76-2.26-.6-3.25,0-2.84,1.7-5.61,3.52-8.38,5.35-3.49,2.3-6.96,4.65-10.43,7-.97,.65-1.48,1.53-1.26,2.76,.16,.9,.78,1.03,2.29,1.02ZM161.76,118.03c0,1.47,0,2.45,0,3.43,.01,1.1,.54,2.06,1.56,2.24,1.28,.23,1.48-1.06,1.8-1.93,.2-.53,.14-1.16,.19-1.74,.61-6.91,1.15-13.83,1.88-20.72,.15-1.45,.83-2.83-1.35-3-1.79-.14-2.84,.82-2.82,2.6,.05,6.57-.86,13.08-1.26,19.13Zm255.12,103.94c-.1-.81-.4-1.56-1.04-2.05-5.56-4.2-11.13-8.39-16.71-12.56-.99-.74-2.12-.74-2.94,.19-.95,1.08-.24,2.08,.61,2.79,1.95,1.63,3.97,3.2,5.99,4.75,3.42,2.63,6.85,5.25,10.32,7.82,.86,.64,1.87,1.19,3.01,.56,.56-.32,.75-.88,.77-1.51Zm-133.61-123.58c-.09-.96-.67-1.66-1.59-1.84-1.34-.27-1.96,.77-2.36,1.77-2.4,5.99-4.74,11.99-7.08,18.01-.46,1.18-1.07,2.56,.54,3.32,1.77,.83,2.47-.52,3.01-1.84,2.34-5.79,4.66-11.58,6.96-17.39,.25-.63,.34-1.32,.52-2.02Zm-69.02,12.2c-.8-4.66-.42-10.06-.63-15.44-.07-1.7,.2-4.07-2.25-4-2.23,.07-2.27,2.29-2.28,4.09,0,.68,.05,1.37,.1,2.05,.35,4.87,.72,9.75,1.04,14.62,.1,1.58-.06,3.58,2.06,3.56,2.12-.03,1.97-2.02,1.96-3.61,0-.2,0-.39,0-1.28Zm-47.84,69.42c.01-1.55-.19-2.51-1.45-2.68-1.39-.19-1.96,.81-2.25,1.88-1.79,6.61-3.52,13.24-5.28,19.86-.31,1.16-.17,2.35,1.05,2.68,1.55,.42,2.27-.69,2.64-2.07,1.36-5.01,2.74-10.01,4.1-15.02,.46-1.7,.87-3.41,1.19-4.65Zm230.28-8.85c.01-1.02-.18-1.69-.9-2-1.23-.52-2.06,.19-2.79,1.05-3.88,4.53-7.27,9.44-10.72,14.3-.74,1.04-2.13,2.39-.44,3.51,1.47,.97,2.85,.35,3.94-1.25,1.99-2.9,4.32-5.56,6.32-8.45,1.66-2.39,3.64-4.61,4.58-7.16Zm-256.76-19.17c-1.43,.57-2.03,1.65-1,3.48,2.87,5.1,5.69,10.23,8.55,15.34,.74,1.32,1.62,2.84,3.37,1.82,1.53-.89,.88-2.45,.21-3.67-2.91-5.31-5.89-10.57-8.83-15.87-.42-.76-.95-1.23-2.29-1.11Zm190.71-18.03c2.02,.12,2.96-.32,2.99-1.88,.03-1.49-.74-1.99-2.16-2.16-6.18-.76-12.37-1.56-18.53-2.48-1.69-.26-3.12-.14-3.39,1.68-.3,1.99,1.46,2.44,2.91,2.49,2.46,.08,4.83,.6,7.24,.94,3.85,.56,7.79,.45,10.93,1.42Zm-196.16,60.39c-5.69,.4-11.14,.74-16.59,1.19-1.56,.13-4.09-.85-3.91,2.06,.16,2.59,2.52,1.79,4.15,1.96,.19,.02,.39,0,.59-.02,5.16-.37,10.32-.76,15.48-1.12,1.8-.12,4.33,.44,4.36-2.18,.04-3.04-2.76-1.45-4.08-1.89Zm144.56,67.22c.9,.05,1.82,.1,2.33-.84,.58-1.09-.04-1.89-.77-2.59-4.18-4-8.37-7.98-12.55-11.98-1.11-1.07-2.45-1.72-3.57-.38-1.11,1.32-.13,2.51,.94,3.52,3.96,3.79,7.9,7.6,11.82,11.43,.53,.52,1.09,.8,1.8,.84ZM114.86,158.33c0-.64-.26-1.17-.85-1.43-1.1-.49-1.87,.14-2.59,.86-4.59,4.58-9.19,9.16-13.78,13.75-.92,.92-2.08,2.06-.94,3.26,1.3,1.36,2.5,.1,3.48-.87,4.46-4.44,8.89-8.9,13.33-13.36,.62-.62,1.32-1.21,1.34-2.2Zm99.45,88.3v.17c.58,0,1.17,0,1.76,0,1.04,.01,2.05-.08,2.27-1.35,.24-1.33-.59-2-1.72-2.36-.56-.18-1.15-.25-1.72-.35-5.64-1.03-11.39-.18-17.06-.94-1.23-.17-2.8,.24-2.82,1.9-.01,1.4,1.24,1.88,2.52,1.95,5.59,.34,11.17,.66,16.76,.99ZM133.35,99.66c.19,.48,.31,1.09,.64,1.54,3.88,5.3,7.4,10.9,12.64,15.07,1.31,1.04,2.57,1.49,3.91,.23,1.53-1.45,.99-3.03,.03-4.5-3.49-5.33-8.05-9.78-12.19-14.58-.88-1.02-1.85-2.37-3.44-1.5-1.33,.73-1.23,2.33-1.59,3.73Zm-54.86,56.12c0,.59,.02,1.18,0,1.77-.08,1.69,.14,3.28,2.15,3.6,2.09,.33,2.56-1.09,3.35-2.79,1.16-2.47-.16-4.85,.51-7.17,1.01-3.53,0-7.23,1.02-10.76,.34-1.19-.53-2.26-1.09-3.28-1.09-1.98-2.71-1.65-3.8-.3-.78,.96-1.58,2.18-1.56,3.69,.06,5.09,.24,10.18-.57,15.24Z"/>
      <path class="cls-1" d="M445.29,349.04c3.83-5.82,8.02-11.38,12.42-16.78,1.94-2.38,5.85-2.59,8.1-.54,.78,.71,.6,1.33,.29,2.09-4.34,10.42-10.02,19.83-19.6,26.34-2.38,1.61-4.86,2.97-7.78,3.35-.86,.11-1.73,.34-2.44,.96-3.3,2.89-7.51,4.22-11.16,6.45-7.59,4.62-17.36,1.05-22.94-4.37-.56-.55-1.04-1.19-1.62-1.72-1.28-1.18-1.93-3.84-3.39-3.64-1.23,.17-2.21,2.53-3.22,3.97-5.17,7.37-12.34,11.5-21.2,12.15-8.42,.63-14.84-3.88-18.41-12.05-.35-.8-.64-1.62-1.1-2.81-1.92,2.61-3.63,5.07-5.48,7.41-2.9,3.67-6.16,6.89-10.79,8.36-7.3,2.31-12.59,.49-16.86-5.86-1.14-1.69-2.04-3.5-2.95-5.86-1.96,4.52-4.83,7.82-8.22,10.67-8.19,6.88-18.17,5.06-23.43-4.26-.24-.42-.47-.83-.9-1.59-1.36,1.72-2.59,3.3-3.84,4.86-2.92,3.64-6.4,6.35-11.22,6.98-9.56,1.24-17.11-6.54-16.61-17.15,.12-2.48,.67-4.85,1.65-7.14,3.66-8.6,7.31-17.2,12.27-25.16,1.02-1.64,2.38-3.77,.64-5.38-1.67-1.55-3.91-.38-5.37,.89-8.53,7.45-16.9,15.06-20.56,26.33-2.77,8.52-5.49,17.05-6.11,26.07-.11,1.65-.69,2.37-2.49,2.41-3.93,.08-7.86,.36-11.78,.69-1.73,.14-2.26-.43-2.11-2.13,.38-4.3,.82-8.59,1.71-13.29-3.42,.98-6.6,1.82-9.92,1.68-.81-.03-1.17,.98-1.63,1.6-2.65,3.58-5.77,6.69-9.17,9.55-12.54,10.52-28.97,5.32-33.5-10.39-4.66-16.16,.53-29.76,10.25-42.33,3.14-4.06,6.67-7.73,11.06-10.52,5.6-3.56,11.48-4.41,17.75-2.16,.65,.23,1.27,.64,1.97,.41,3.25-1.08,6.04,.23,9.07,1.28,7.07,2.44,9.07,6.41,8,14.25-1.2,8.75-3.83,17.05-7.69,24.98-.36,.74-1.11,1.39-.8,2.79,4.75-2.35,8.42-5.71,10.43-10.34,4.86-11.19,10.33-22.09,15.36-33.19,.85-1.88,1.87-2.66,3.95-2.67,3.64-.02,7.27-.32,10.9-.62,1.54-.12,1.96,.29,1.43,1.78-.68,1.91-1.26,3.86-2.09,6.45,3.1-1.98,5.61-3.61,8.16-5.18,1.84-1.14,3.75-2.19,5.92-2.56,6.83-1.15,11.7,2.5,12.74,9.43,1.48,9.85-2,18.35-7.01,26.49-2.78,4.51-5.96,8.82-7.58,13.96-.64,2.02-2.02,4.85-.27,5.96,1.44,.9,3.59-1.68,4.7-3.22,7.17-9.89,15.65-18.9,19.38-31.06,2.44-7.96,5.7-15.71,9.84-23.01,1.18-2.07,2.65-3.15,5.16-3.15,3.34,0,6.69-.28,10.01-.66,2.23-.25,2.33,.55,1.59,2.25-3.06,7.03-6.16,14.04-9.13,21.11-3.74,8.88-7.32,17.83-10.36,26.98-.65,1.95-1.07,3.99-1.44,6.01-.23,1.25-.38,2.81,.89,3.49,1.48,.79,2.58-.49,3.49-1.48,3.47-3.76,6.84-7.61,9.82-11.78,2.86-4,5.56-8.11,8.44-12.1,2.99-4.15,4.01-9.15,6.12-13.68,3-6.41,5.38-13.1,8.98-19.23,1.13-1.92,2.37-3.1,4.82-3.09,3.43,0,6.88-.32,10.3-.68,2.26-.24,2.51,.52,1.69,2.4-2.9,6.56-5.83,13.11-8.56,19.75-4.08,9.91-8.35,19.75-11.54,30-.49,1.58-.83,3.24-1,4.89-.13,1.21-.46,2.76,1.04,3.39,1.31,.55,2.24-.59,3-1.42,2.58-2.84,5.11-5.72,7.55-8.68,2.19-2.65,4.1-5.54,6.39-8.1,4.05-4.51,5.25-10.25,7.14-15.69,4.56-13.11,9.7-25.98,15.53-38.57,1.34-2.88,1.3-2.9-1.79-2.79-6.28,.23-6.17,.26-4.19-5.73,.7-2.13,1.7-3.21,3.93-2.89,4.87,.68,7.14-1.74,8.91-6.15,4.54-11.31,9.67-22.39,14.46-33.6,.88-2.05,2-3.03,4.33-3.11,4.12-.16,8.24-.6,12.34-1.1,2.29-.28,2.77,.49,2.11,2.54-2.16,6.67-5.63,12.76-8.37,19.18-2.91,6.84-5.94,13.64-9,20.63,3.26-.19,6.38-.3,9.49-.57,1.83-.16,2.47,.16,1.87,2.21-1.89,6.45-1.82,6.83-8.52,6.75-4.78-.06-6.91,1.79-8.64,6.16-5.54,13.99-11.53,27.8-16.04,42.17-2.15,6.87-3.95,13.86-2.65,21.15,1.1,6.21,4.59,7.59,9.53,3.65,5.53-4.41,9.05-10.58,13.27-16.12,.59-.78,.54-2.06,.74-3.11,1.33-6.88,4.73-12.02,11.87-13.91,1.32-.35,1.93-1.24,2.46-2.31,2.32-4.68,4.12-9.57,5.97-14.45,.38-1,.1-1.9,.01-2.87-.56-5.91-.38-11.67,4.15-16.27,2.56-2.6,5.73-3.31,9.22-2.42,3.51,.9,4.18,3.82,4.6,6.84,.53,3.81-.51,7.3-2.77,10.27-1.22,1.6-.9,2.35,.37,3.6,5.22,5.13,9.62,10.9,13.15,17.33,2.69,4.92,3.83,10.06,2.76,15.64-.24,1.24-.15,2.53-.22,3.8-.08,.01-.16,.01-.22,.04-.04,.02-.05,.1-.07,.15,.08-.08,.17-.16,.25-.23Zm-249.84-17.42c-4.95,4.86-8.44,10.59-11.24,16.73-2.9,6.35-5.62,12.79-5.39,20,.08,2.54,.63,5.01,3.1,6.29,2.57,1.33,4.77-.11,6.77-1.58,3.53-2.6,5.92-6.24,8.61-9.61,.72-.9,.08-1.48-.32-2.07-4.16-6.18-4.59-13.03-3.55-20.09,.48-3.25,1.34-6.44,2.02-9.66Zm213.8,10.65c-2.37,.16-3.33,1.61-3.55,3.68-.62,6.01,1.57,10.81,6.49,14.25,2.69,1.89,7.67,.38,9.26-2.59,.21-.4,.32-.75,0-1.05-3.81-3.68-5.44-8.88-8.91-12.79-.92-1.03-2.07-1.44-3.3-1.51Zm18.76,5.27c3.07-11.09-1-19.92-7.1-28.49-1.39,3.43-2.62,6.72-4.05,9.92-.66,1.48-.4,2.26,.93,3.13,2.16,1.4,3.59,3.51,5.16,5.55,2.25,2.93,2.92,6.56,5.06,9.9Zm-222.18,5.18c2.95-6.38,4.98-12.24,6.07-18.41,.29-1.64,.55-3.3,.26-4.97-.13-.75,0-1.76-.89-2-.73-.2-1.1,.67-1.55,1.16-1.9,2.07-2.96,4.56-3.71,7.25-1.5,5.34-.99,10.69-.18,16.97Z"/>
      <path class="cls-1" d="M37.58,297.95c0,.68,.17,1.89-.03,3.04-.89,5.22,2.03,8.63,5.62,11.54,3.77,3.07,7.83,2.1,11.56-.17,8.16-4.97,13.76-12.2,17.7-20.79,1.31-2.87,2.35-5.86,2.52-9.05,.08-1.37,.7-2.09,1.94-2.61,2.63-1.11,5.23-2.29,7.77-3.57,1.9-.96,2.25-.4,2.26,1.56,.07,16.5-6.98,29.57-19.27,40.08-4.61,3.95-9.84,6.97-15.9,7.98-11.02,1.84-19.15-3.24-25.29-11.72-8.38-11.58-8.2-24.29-3.44-37.12,7.26-19.59,21.93-31.67,40.83-39.19,14.55-5.8,29.65-7.61,45.19-5.77,8.12,.96,16.02,2.89,23.58,6.02,1.53,.63,2.65,.74,4.08-.17,2.65-1.7,5.68-2.66,8.54-3.97,4.86-2.23,9.62-1.18,14.42,0,.95,.23,1.79,.77,2.5,1.51,.99,1.03,1.14,1.79-.44,2.35-4.71,1.66-8.55,4.8-12.65,7.5-.89,.59-2.05,1.14-.42,2.3,18.21,12.95,23.89,31.63,23.1,52.71-1.09,28.98-11.82,53.86-34.38,72.66-15.4,12.83-33.55,18.15-53.6,16.32-5.97-.54-11.9-1.49-17.84-2.34-1.58-.23-2.83,.03-4.07,1.08-2.72,2.29-5.84,3.98-8.86,5.84-8.28,5.11-17.43,5.52-26.78,5.46-4.21-.02-7.99-.94-11.48-3.11-4.32-2.7-7.66-6.22-8.4-11.52-1.03-7.41,3.23-13.55,11.18-16.24,8.03-2.72,16.12-1.88,24.18-.2,4.43,.92,8.84,1.94,13.2,3.15,2.14,.6,3.35,.15,4.56-1.74,6.41-9.98,11.4-20.65,15.8-31.61,3.45-8.58,6.44-17.35,10.2-25.79,7.88-17.65,14.87-35.78,26.62-51.43,2.43-3.23,5.03-6.31,7.97-9.07,.93-.87,1.45-1.45-.22-1.92-24.7-6.92-48.02-5.61-68.13,12.31-10.01,8.92-15.03,22.29-14.14,35.72Zm37.61,77.56c1.93,.94,3.74,.61,5.45,.86,17.19,2.5,31.4-3.42,42.96-15.87,15.59-16.79,23.5-37,25.24-59.66,1.11-14.35-1.27-27.84-11.17-39.17-1.36-1.56-1.76-1.67-2.68,.15-4.05,7.97-8.1,15.93-11.69,24.12-6.24,14.22-10.68,29.17-17.61,43.11-7.37,14.83-15.44,29.2-26.26,41.85-1.32,1.54-2.75,2.98-4.23,4.59Zm-29.86,6.69c-4.55-1.13-8.55-2.53-12.77-2.97-2.83-.29-5.68-.66-8.52-.03-1.07,.24-2.18,.54-2.43,1.83-.26,1.3,.89,1.63,1.68,2.13,1.95,1.23,4.12,1.75,6.42,1.95,5.32,.47,10.37-.49,15.63-2.91Z"/>
      <path class="cls-10" d="M276.39,88.91c-.49,1.33-.64,1.55-2.48,.91-2.84-.99-5.87-1.84-8.86-2.58-6.38-1.58-13.01-.94-19.33-2.65-.83-.23-1.76-.16-2.64-.14-4.52,.11-9.02-.09-13.43-1.13-1.68-.4-2.72,.96-4.16,1.1-2.57,.26-5.08-.26-7.6-.61-8.72-1.21-17.55-1.07-26.18-.28-7.43,.69-14.98,.72-22.33,2.15-9.02,1.75-18.17,2.58-27.17,4.26-6.01,1.12-12.35,1.96-17.87,4.29-7.09,2.99-14.61,5.04-21.23,9.38-5.17,3.39-10.69,6.37-15.84,9.8-4.12,2.74-7.88,6.13-11.4,9.75-4.22,4.34-9.04,8.03-13.82,11.75-3.81,2.97-6.82,6.77-9.4,10.78-4.69,7.28-9.12,14.77-11.4,23.21-1.92,7.09-4.72,13.97-4.75,21.52-.02,5.85,1.95,10.99,4.38,16.17,2.87,6.13,6.85,11.55,11.07,16.64,2.84,3.43,7,5.89,12.16,5.61,1.55-.08,3.42-.97,4.95,.4-3.73,1.41-7.59,2.53-10.98,4.72-1.14,.74-2.05-.08-3.06-.23,0,0-.06,0-.06,0-.24-.14-.48-.28-.71-.42-.11-.1-.24-.16-.39-.19-.25-.15-.51-.31-.76-.47-10.21-5.96-18.21-13.93-22.8-25.03-.8-1.93-1.32-3.9-1.42-5.99-1.2-24.16,6.04-45.54,21.32-64.21,14.06-17.17,31.96-29.2,52.06-38.15,12.88-5.74,26.26-9.97,40-13.09,.65,.08,1.28,.12,1.8-.38,.38-.07,.76-.14,1.15-.21,1.64-.1,3.25-.3,4.75-1.02,.39-.04,.77-.08,1.16-.12,4.56-.63,9.13-1.13,13.61-2.26,.39-.03,.77-.07,1.16-.1,2.01,.13,3.99,.04,5.9-.7,.77-.07,1.54-.13,2.31-.2,1.24,.26,2.4-.17,3.59-.38,1.36-.08,2.72-.15,4.09-.23,4.14-.17,8.29-.35,12.43-.52,1.37-.04,2.73-.09,4.1-.13,6.52,.11,13.03,.22,19.55,.34,2.56,.17,5.13,.34,7.69,.51,1.59,.13,3.18,.26,4.77,.38,.58,.05,1.16,.11,1.73,.16,.75,.37,1.54,.36,2.34,.24,.71,.04,1.41,.07,2.12,.11,6.33,1.33,12.74,2.03,19.16,2.73,.7,.08,1.39,.16,2.09,.24,1.42,.55,2.87,.93,4.41,.88,.39,.06,.78,.12,1.17,.18,4.25,1.46,8.84,1.55,13.05,3.21Z"/>
      <path class="cls-5" d="M313.14,305.3c-3.51,1.01-7.03,2.02-10.54,3.04-6.43-.73-11.35-4.68-16.59-7.89-1.46-.9-2.89-2.29-4.49-1.36-3.52,2.06-7.53,2.79-11.13,4.54-10.39,5.05-21.72,6.6-32.9,7.6-8.92,.8-18.11,.17-27.02-2.25-12.13-3.29-24.05-7.07-35.14-13.11,0-3.69,0-7.39,0-11.08,14.92,8.61,30.94,13.24,48.21,13.68,18.25,.46,35.68-3.34,52.72-9.51,1.96-.71,3.78-2.34,6.28-.57,9.57,6.75,19.81,12.35,30.6,16.91Z"/>
      <path class="cls-2" d="M175.32,295.88c11.09,6.04,23.01,9.82,35.14,13.11,8.91,2.41,18.1,3.05,27.02,2.25,11.18-1,22.51-2.55,32.9-7.6,3.6-1.75,7.61-2.48,11.13-4.54,1.6-.94,3.03,.46,4.49,1.36,5.24,3.21,10.16,7.16,16.59,7.89-4.71,3.07-7.02,7.55-8.56,12.89-1.9,6.59-4.45,13.01-8.16,18.88-.41,.66-.71,1.36-1.7,1.91-.44-1.98,.55-3.52,.84-5.13,.89-4.83,2.03-9.59,.48-14.55-2.77-8.85-12.38-13.66-21.6-10.48-2.33,.8-4.21,1.32-6.4-.47-1.84-1.5-4.27-1.18-6.54-.77-2.6,.48-5.24,.8-7.81,1.4-1.89,.44-3.16,1.76-4.07,3.55-3.49,6.93-6.53,14.05-9.41,21.25-.17,.42-.46,.79-1.31,1.12,0-2.18,.25-4.39-.05-6.53-.98-7.07-4.83-12.04-10.43-16.61-6.06-4.95-12.68-6.05-19.58-5.11-7.52,1.02-14.52,4.21-20.13,9.68-1.98,1.93-3.88,3.86-7.1,4.8,2.25-9.49,3.14-18.92,4.24-28.31Z"/>
      <path class="cls-10" d="M171.04,264.67c.46,.12,1.11,.09,1.35,.39,4.98,5.99,11.86,8.93,18.71,12.08,5.66,2.61,11.04,5.91,17.21,7.13,8.58,1.7,17.03,3.97,26,3.56,3.9-.18,7.92-.55,11.93-.07,2.03,.24,4.27-.88,6.35-1.59,5.36-1.84,10.31-4.63,15.49-6.87,5.08-2.2,10-5.49,16.02-4.68,.77,.1,1.55-.03,2.29,.4,2.77,1.59,5.61,2.73,8.82,3.45,3.4,.77,6,3.95,9.55,4.81,2.74,.67,4.27,2.97,6.5,4.27,6.07,3.53,12.99,4.99,19.39,7.74,3.27,1.4,6.38,3.14,9.98,3.93,6,1.31,11.77,1.33,17.5-1,.65-.26,.87-.71,1.06-1.28,1.77,.77,3.21,2.22,5.23,2.46,.63,.08,1.3,.42,.99,1.09-.84,1.83-.68,4.41-3.43,4.91-1.18,.18-2.36,.35-3.53,.53-.29-.04-.66,.03-.86-.12-4.75-3.88-10.61-2.34-15.96-3.27-2.94-.51-5.47,1.08-8.08,2.13-.55-.12-1.1-.24-1.65-.36-.21-.04-.42-.08-.63-.12-1.6-.48-3.19-.99-4.8-1.44-14.75-4.14-28.08-11.25-40.37-20.17-3.4-2.47-5.9-2.46-9.32-1.05-8.19,3.38-16.68,5.8-25.35,7.65-14.87,3.16-29.76,3.77-44.72,.69-10.7-2.2-20.59-6.4-29.97-11.92-.24-.16-.49-.32-.73-.48-.54-.43-1.09-.82-1.82-.82-1.05-3.99-2.1-7.98-3.16-11.97Z"/>
      <path class="cls-11" d="M174.2,276.64c.73,0,1.28,.39,1.82,.82,.09,.39,.33,.56,.73,.48,9.38,5.51,19.27,9.71,29.97,11.92,14.96,3.08,29.86,2.48,44.72-.69,8.67-1.84,17.16-4.27,25.35-7.65,3.42-1.41,5.92-1.42,9.32,1.05,12.29,8.92,25.62,16.03,40.37,20.17,1.61,.45,3.2,.96,4.8,1.44,.14,.38,.34,.49,.63,.12,.55,.12,1.1,.24,1.65,.36,.03,2.39-1.54,4.13-2.46,6.14-2.53,.22-4.65-1.71-7.21-1.36-2.95-3.03-6.58-4.28-10.75-4.15-10.79-4.56-21.03-10.15-30.6-16.91-2.5-1.77-4.32-.14-6.28,.57-17.04,6.17-34.47,9.97-52.72,9.51-17.27-.44-33.29-5.07-48.21-13.68-1.52-2.56-1.15-5.38-1.13-8.16Z"/>
      <path class="cls-2" d="M414.56,289.82c1.75,.07,3.5,.15,5.26,.22,.23,1.34-.94,1.69-1.71,2.08-5.16,2.59-7.01,7.24-7.67,12.48-.38,3.05-1.32,5.53-3.43,7.85-2.03,2.23-3.71,4.85-5.18,7.5-5.37,9.71-13.69,16.25-22.95,21.82-.18-.19-.36-.38-.54-.57,3.01-9.66,5.39-19.53,9.64-28.77,.69,.01,1.36-.02,1.95-.49,5.23-4.13,10.24-8.46,13.93-14.12,.61-.94,.62-1.82-.06-2.71,3.33-1.25,6.48-2.8,9.04-5.34,.38,.02,.75,.03,1.13,.05,.2,0,.39,0,.59,0Z"/>
      <path class="cls-2" d="M430.03,289.49c5.49-1.17,10.76-2.89,15.49-6.03,2.46-1.63,4.47-3.77,6.8-5.67-3.39,11.49-8.69,21.94-16.49,31.09-1.23-1.36-.72-2.99-.62-4.5,.23-3.28-.23-6.45-1.19-9.58-.7-2.28-2.27-3.84-3.99-5.31Z"/>
      <path class="cls-5" d="M403.8,295.11c.68,.89,.67,1.77,.06,2.71-3.68,5.66-8.7,9.99-13.93,14.12-.59,.47-1.26,.5-1.95,.49,.93-3.98,3.04-7.58,3.73-11.63,2.47-1.27,4.77-2.78,6.65-4.88l5.44-.81Z"/>
      <path class="cls-5" d="M40.23,243.19c-2.53-5.58-4.97-11.2-6.88-17.98,5.05,5.18,9.75,9.4,15.42,12.37-.07,1.82-1.81,1.89-2.86,2.45-1.91,1.02-3.17,3.24-5.67,3.15Z"/>
      <path class="cls-10" d="M361.99,282.81c.23-1.37,1.41-1.49,2.42-1.77,2.16-.6,4.33-1.18,6.51-1.69,2.27-.52,3.15-1.74,3.66-4.18,.57-2.71,1.41-5.68,3.79-7.68-.79,3.64-2.35,7.02-3.54,10.52-.35,1.03-1.1,1.51-2.13,1.78-3.58,.96-7.14,1.99-10.71,3Z"/>
      <path class="cls-11" d="M358.45,305.94c1.18-.18,2.36-.35,3.53-.53,1.89,2.25,.5,5.59-2.93,7.03-.17,.11-.35,.18-.54,.22,0-1.46-.05-2.93-.7-4.25-.54-1.1-.16-1.8,.63-2.48Z"/>
      <path class="cls-11" d="M398.36,295.92c-1.87,2.09-4.17,3.6-6.65,4.88-.4-3.38,.37-4.5,3.45-4.83,1.06-.11,2.13-.04,3.2-.05Z"/>
      <path class="cls-5" d="M323.89,309.45c2.55-.35,4.68,1.59,7.21,1.36,.08,.66,.35,1.44-.66,1.62-.57,.1-1.28-.2-1.73,.05-3.47,1.9-4.36-.2-4.83-3.03Z"/>
      <path class="cls-5" d="M358.52,312.66c.19-.04,.37-.12,.54-.22,.39,.04,1.02-.06,1.13,.14,.89,1.6-.31,2.89-.88,4.18-.51,1.15-.31,2.98-2.07,3.22-1.23,.17-1.14-.72-.77-1.56,.81-1.88,1.9-3.65,2.06-5.76Z"/>
      <path class="cls-10" d="M359.18,296.93c-2.9-1.06-4.07-5.56-2.12-8.16-.2,2.96,.58,5.66,2.12,8.16Z"/>
      <path class="cls-10" d="M376.34,257.92c1.92,.58,1.58,3.56,3.92,3.71-.39,.98-.78,1.97-1.17,2.95-.52-2.38-2.96-3.97-2.75-6.66Z"/>
      <path class="cls-5" d="M325.37,380.96c1.85-.51,3.37,.82,5.13,.85-1.77,.08-3.68,.93-5.1-.87l-.03,.03Z"/>
      <path class="cls-10" d="M357.47,287.32c-.31-1.25,.26-1.9,1.46-2.1,.01,1.05-.7,1.59-1.46,2.1Z"/>
      <path class="cls-10" d="M360.21,284.01c.07-.84,.54-1.15,1.35-1.02-.23,.62-.65,1.01-1.35,1.02Z"/>
      <path class="cls-1" d="M82.43,310.38c-.06,.03-.12,.06-.17,.08,.04-.11,.07-.23,.11-.34,.02,.09,.04,.17,.07,.26Z"/>
      <path class="cls-2" d="M378.88,341.77c-.22,.21-.38,.7-.75,.34-.11-.11,.14-.59,.22-.91,.18,.19,.36,.38,.54,.57Z"/>
      <path class="cls-5" d="M325.4,380.93c-.17-.05-.33-.1-.5-.14,.05-.07,.09-.13,.14-.2,.11,.12,.22,.25,.33,.37,0,0,.03-.03,.03-.03Z"/>
      <path class="cls-8" d="M205.47,50.77c0-.79-.02-1.58-.02-2.37-.01-.58-.02-1.16-.04-1.74-.05-1.58-.09-3.17-.14-4.75,0-3.14-.01-6.29-.02-9.43,.51-6.77,1.09-13.54,.83-20.33-.07-1.95,.31-2.82,2.55-2.71,3.43,.17,6.88-.09,10.32-.15,2.1-.03,3.4,.74,3.93,3.04,1.57,6.8,3.43,13.54,5.87,20.1,.22,.58,.07,1.42,1.3,1.77,.28-4.32,.5-8.57,.85-12.8,.27-3.3,.75-6.59,1.01-9.89,.11-1.32,.71-1.58,1.88-1.59,1.86,0,3.74-.1,5.59-.31,4.06-.45,4.06-.49,5.2,3.54,.02,.34,.03,.68,.04,1.02-.07,.38-.15,.77-.22,1.15-.45,8.87-1.83,17.68-1.76,26.58-.99,.87-.38,1.98-.46,2.98-.4,5.31-.8,10.62-1.19,15.94-.11,.36-.21,.71-.32,1.07-.51,1.26-.77,2.51,.03,3.76-.53,.95-.74,2.19-2.16,2.29-3.63,.38-7.05-1.09-10.62-1.19-3.47-9.54-6.7-19.17-9.82-29.39-1,8.07-.35,15.53-.11,22.99,.09,2.67-.37,5.06-2.51,6.89-3.69-.1-7.64,.99-10.66-2.26,0-.4,0-.81,0-1.21,0-.58,0-1.15,0-1.73,0-.41,0-.82,.01-1.23,1.28-3.27,.65-6.66,.63-10.02Z"/>
      <path class="cls-8" d="M400.56,51.58c4.81,2.25,8.73,5.6,11.97,9.76,2.23,2.87,3.14,6.32,2.29,9.75-2.78,11.19-6.26,22.09-14.32,30.88-6.05,6.59-13.27,8.68-21.85,6.35-5-2.58-9.21-6.31-13.85-9.41-1.62-1.08-.82-2.09-.29-3.24,5.98-13,12.24-25.89,17.55-39.19,1.02-2.55,2.19-5.1,2.67-7.77,.51-2.83,1.8-2.96,3.83-1.87,3.82,2.05,7.84,3.57,12,4.75Zm-6.98,9.76c-1.77,4.15-3.51,8.11-5.14,12.11-2.82,6.92-5.57,13.87-8.35,20.8-.37,.93-.99,2.02,.78,2.03,3.33,.02,6.41-.38,8.35-3.77,3.71-6.46,5.9-13.48,8.1-20.52,1.38-4.42,.39-7.86-3.74-10.66Z"/>
      <path class="cls-8" d="M288.62,71.33c-1.91,2.64-4.54,3.43-7.71,3.29-5.61-.25-10.8-1.87-15.78-4.33-4.49-2.55-5.47-7.03-5.74-11.52-.59-10.11-.01-20.2,2.13-30.14,1.8-8.35,7.05-12.61,15.61-12.52,3.14,.03,6.27,.27,9.4,.52,7.28,.59,10.76,3.89,11.8,11.11-.11,2.15-.03,4.33-.36,6.44-1,6.3-2.08,7.03-8.39,5.63-5.65-1.25-4.73-.65-3.96-5.79,.2-1.35,.2-2.73,.27-4.1,.07-1.39-.35-2.5-1.8-2.98-.17-.15-.34-.29-.51-.44-.19-.68-.74-.68-1.29-.68l.08,.05c-3.2-1.61-5.19-.67-6.53,3.07-2.26,3.88-2.55,8.2-2.65,12.51-.13,5.59-.13,11.19,.03,16.78,.07,2.59,1.75,4.28,4.37,4.25,2.24-.03,3.83-1.29,4.08-3.8,.11-1.07,.49-2.1,.68-3.17,.28-1.58-.02-2.73-2.03-2.62-2.5,.14-3.04-1.39-2.66-3.44,.49-2.7,1.11-5.38,1.67-8.07,3.81,.03,7.61,.05,11.42,.09,1.51,.02,2.91,.32,3.87,1.64,.02,.79,.04,1.57,.06,2.36-.16,1.44-.39,2.88-.47,4.32-.27,4.82,.58,9.7-.85,14.45l.03,.02c-.63,.4-.75,1.04-.79,1.71l-.02-.09c-1.71,1.54-2.6,3.67-3.97,5.46h0Z"/>
      <path class="cls-8" d="M340.8,44.9c.72-.93,1.63-1.76,2.12-2.8,3.4-7.21,9.54-7.62,16.21-6.54,9.36,1.52,15.53,10.38,14.53,19.29-1.18,10.5-5.31,19.78-9.52,29.13-1.14,2.54-3.56,4.14-5.39,6.17-1.28,.64-2.56,1.29-3.83,1.93-.59,.12-1.18,.24-1.77,.36-.4,.06-.8,.12-1.2,.18-8.16,.92-14.58-2.05-19.42-8.63-1.56-2.12-1.99-4.39-1.43-6.95,.27-1.23,.2-2.53,.28-3.8,2.88-9.53,5.46-19.17,9.44-28.34Zm19.57,6.68c0-2.48,.17-4.44-2.13-4.99-2.19-.52-3.41,.86-4.38,2.61-3.03,5.45-5.26,11.24-6.37,17.34-.71,3.91-2.45,7.73-1.54,11.86,.54,2.46,2.08,3.04,3.94,1.39,1.55-1.38,2.95-3,3.61-4.96,2.18-6.5,4.22-13.05,6.24-19.6,.43-1.39,.51-2.89,.64-3.66Z"/>
      <path class="cls-8" d="M317.1,82.91c-5.3,.08-9.63-2.53-13.98-5.06-.97-.98-1.93-1.96-2.9-2.94-2.54-3.29-3.73-7.05-3.69-11.18,.06-5.39,1.22-10.64,2.22-15.91,1.51-4.87,3.06-9.74,4.54-14.62,1.8-5.94,6.25-8.86,11.96-9.41,5.94-.57,11.73,.84,16.94,3.95,1.71,1.02,2.84,2.69,4.05,4.24,.48,2.15,.96,4.29,1.43,6.44,.01,1.35,.03,2.71,.04,4.06-.96,10.73-4.38,20.79-8.47,30.66-.32,.56-.65,1.13-.97,1.69-1.18,1.62-2.37,3.24-3.55,4.87-2.35,1.52-4.64,3.18-7.62,3.22Zm-8.34-18.81c-.08,.58-.19,1.16-.23,1.75-.23,3.74,1.86,5.25,5.34,3.98,2.41-.89,2.98-3.07,3.55-5.08,2.11-7.45,4.05-14.95,6.04-22.44,.25-.95,.52-1.92,.56-2.88,.12-2.44-1.32-3.96-3.46-4.47-1.4-.33-3.28-1.12-4.24,1.15-3.82,8.99-6.6,18.25-7.56,28.01Z"/>
      <path class="cls-8" d="M148.75,62c-.52-11.58-2.12-23.04-3.83-34.48-.52-3.48-1.23-6.94-1.85-10.41-.68-3.8,.31-5.03,4.11-5.16,2.46-.09,4.91-.18,7.36-.34,1.96-.13,2.66,.43,2.69,2.65,.07,5.4,.59,10.79,.95,16.18,.02,.24,.2,.48,.32,.75,1.39-.32,1.46-1.56,1.94-2.45,2.77-5.2,5.54-10.39,8.23-15.63,.77-1.5,1.82-2.19,3.51-2.07,2.95,.21,5.81-.81,8.79-.58,2.72,.21,3.15,.67,1.71,3.11-2.19,3.72-4.54,7.34-6.84,11-1.66,2.65-3.66,5.11-4.75,8.1-.95,1.66-3.44,3.16-.55,5.22,0,0-.03-.02-.03-.02,3.58,5.3,6.38,11.1,10.33,16.17,0,0,.05,.13,.05,.13,.78,2.56,2.37,4.68,3.83,6.87,.07,.39,.14,.78,.22,1.16,.48,1.36,1.97,3.2-.53,3.74-3.68,.79-7.5,1.48-11.17-.32-1.36-.84-1.87-2.28-2.52-3.62-1.16-1.32-1.3-3.34-2.99-4.29-.14-.17-.29-.34-.43-.51-1.64-2.86-3.28-5.72-4.93-8.58-.56,2.54-.58,4.78-.56,7.03,.03,3.23-.29,6.65,.92,9.59,1.07,2.61-.18,3.26-1.93,3.81-1.47,.47-3.07,.65-4.63,.72-5.43,.21-5.43,.17-6.8-4.82,.11-.52,.06-.96-.49-1.21-.05-.57-.1-1.15-.15-1.72Z"/>
      <path class="cls-8" d="M106.18,31.95c.54-3.3-1.4-6.98,1.99-9.7,5.34-4.28,10.92-7.77,18.22-6.69,4.88,.72,8.81,3.14,12.16,6.67,1.83,1.92,1.26,4.26,1.25,6.45-.03,6.36,1.08,5.32-5.6,5.91-.88,.08-1.78-.02-2.65,.12-1.89,.29-2.85-.37-3.25-2.35-.57-2.78-1.25-6.51-4.69-6.13-3.16,.35-4,4.09-4.37,6.99-.81,6.38,.53,12.53,2.76,18.49,.93,2.48,1.9,4.96,3.34,7.21,1.88,2.94,4.37,2.78,6.06-.31,1.44-2.61,.66-5.24,0-7.75-.59-2.27-.14-3.11,2.23-3,2.26,.11,4.52,.01,6.79,.07,1.94,.05,3.17,.88,3.11,3.05-.12,4.03,0,8.08-.37,12.09-.39,4.31-3.55,6.71-7.13,8.33-3.25,1.47-6.81,2.01-10.39,1.71-5.57-.47-9.61-2.84-11.85-8.45-4.22-10.57-7.81-21.22-7.6-32.72Z"/>
      <path class="cls-8" d="M52.17,41.83c-.35-1.3-.46-2.75-1.11-3.89-1.6-2.8-1.18-4.53,2.14-5.17,.2,0,.35-.07,.46-.24,2.53-.32,4.88-1.24,7.23-2.18,.19,.06,.33,0,.45-.15,2.78,.76,2.2,3.52,3.2,5.34-.05,.23,.03,.38,.25,.46,.47,1.57,.94,3.13,1.41,4.7-.13,.68,.14,1.25,.5,1.8,1.48,7.49,4,14.66,6.53,21.83-.1,.9,.26,1.66,.72,2.39,.15,2.17,1.19,4.08,1.79,6.11,.24,.81,.64,1.55,1.64,1.15,4.32-1.73,9.09-2.04,13.27-4.23,0,0,.25,.09,.25,.09,1.77-.39,3.13-.27,3.04,2.12-.03,.76,.3,1.54,.51,2.29q1.17,4.22-2.82,5.73c-5.6,2.1-11.37,3.68-17.1,5.4-2.06,.62-4.05,1.49-6.07,2.24-.33-.28-.65-.57-.98-.85,.18-1.1-.23-1.93-1.13-2.55,0,0,.09-.19,.08-.18s0-.22,0-.22c-1.82-5.67-3.56-11.38-5.49-17.02-2.85-8.35-5.83-16.66-8.76-24.98Z"/>
      <path class="cls-8" d="M110.29,75.45c-3.55,1.96-7.68,1.71-11.44,2.91-1.43,.46-1.63-1.33-1.92-2.41-.91-3.37-1.78-6.74-2.67-10.12,0,0-.1,.02-.11,.02-.3-2.95-.97-5.82-2.06-8.59,.12-.65-.07-1.23-.45-1.76-.01-1.05-.18-2.06-.72-2.98-.07-.39-.14-.78-.21-1.17-1.48-5.72-2.59-11.53-4.51-17.14-.57-2.68-1.06-5.39-1.73-8.05-.46-1.81-.04-2.74,1.9-3.1,2.8-.51,5.57-1.19,8.34-1.86,2.05-.5,2.91,.13,3.41,2.31,3.97,17.33,8.09,34.62,12.17,51.92Z"/>
      <path class="cls-8" d="M187.82,52.53c0-.58,0-1.16,.01-1.74,.2-10.84,.4-21.67,.61-32.51,.06-3.12-.41-6.25,.16-9.36,2.39-1.12,4.94-.52,7.41-.67,.58,.04,1.17,.17,1.74,.11,2.81-.29,4.02,.91,3.65,3.73-.06,.47,.04,.97,.06,1.46-.02,.6-.04,1.2-.06,1.8-.07,.96-.14,1.93-.21,2.89-.68,.5-.38,1.18-.35,1.82-.03,5.51-.06,11.02-.1,16.53-.03,1.76-.06,3.52-.09,5.28-.8,6.33-.52,12.69-.4,19.04,.12,6.35,.15,6.35-6.35,6.4-5.49,.04-5.74-.17-6.29-5.31,0-.6,0-1.19,0-1.79,.41-2.55,.36-5.11,.2-7.67Z"/>
      <path class="cls-6" d="M187.62,62c.56,5.14,.81,5.35,6.29,5.31,6.5-.05,6.47-.05,6.35-6.4-.12-6.35-.4-12.7,.4-19.04,1.06,.82,.65,1.99,.66,3.01,.04,5.6,.02,11.19,.02,16.79,0,2.33,1,3.58,3.48,3.28,3.02,3.25,6.97,2.16,10.66,2.26,.2,1.43-2.3,1.27-1.72,2.93-3.65,.32-7.29,.62-10.26-2.2-.61-.58-1.15-.52-1.8,0-2.98,2.45-6.72,2.34-9.83,1.38-4.54-1.39-8.96-.64-13.37-.5-3.51,.11-6.8-.39-10.1-1.2-1.37-.33-2.18-.34-2.73,1.16-.42,1.13-1.43,1.83-2.62,2.2-5.73,1.76-11.33,1.76-16.7-1.28,1.1,.02,1.68-.36,1.95-1.59,.24-1.07,.15-2.33,1.09-3.19,1.37,4.99,1.37,5.04,6.8,4.82,1.55-.06,3.15-.25,4.63-.72,1.75-.55,3-1.2,1.93-3.81-1.21-2.94-.89-6.36-.92-9.59-.02-2.24,0-4.49,.56-7.03,1.64,2.86,3.28,5.72,4.93,8.58-1.42,.19-1.79-1.38-3-1.75-2.22,3.11-1.08,6.28-.12,9.45,.16,.51,.52,1.06,.98,.88,1.72-.67,2.98,.65,4.46,.85,1.26,.17,2.79,.66,3.61-1.01,3.67,1.79,7.49,1.11,11.17,.32,2.5-.54,1.01-2.38,.53-3.74,.89-.06,1.79-.12,2.68-.18Z"/>
      <path class="cls-6" d="M294.64,43.1c-.96-1.32-2.36-1.63-3.87-1.64-3.81-.04-7.61-.06-11.42-.09,.12-1.5,1.29-1.29,2.2-1.21,1.93,.18,2.34-.64,2.58-2.5,.46-3.61,.71-7.15-.01-10.73,1.45,.48,1.87,1.59,1.8,2.98-.07,1.37-.07,2.75-.27,4.1-.77,5.15-1.7,4.54,3.96,5.79,6.3,1.4,7.39,.67,8.39-5.63,.33-2.11,.25-4.29,.36-6.44,1.57,.49,1.75,1.72,1.51,3.05-.74,4.1-.73,8.51-4.55,11.39-.29,.22-.44,.61-.65,.93Z"/>
      <path class="cls-6" d="M298.75,47.82c-1,5.27-2.16,10.52-2.22,15.91-.04,4.13,1.14,7.88,3.69,11.18-2.79-.92-5.12-4.45-4.63-7.96,.31-2.19-.57-2.55-2.22-2.71,1.43-4.75,.58-9.63,.85-14.45,.08-1.44,.31-2.88,.47-4.32,1.44,2.99-.07,6.16,.55,9.2,.09,.46,.06,.95,.73,1.54,.35-2.04,.76-4.08,1.01-6.14,.14-1.19,.34-2.15,1.76-2.25Z"/>
      <path class="cls-6" d="M329.24,73.13c4.08-9.87,7.51-19.92,8.47-30.66q1.1,2.52,3.09,2.42c-3.99,9.17-6.56,18.8-9.44,28.34-.7-.03-1.41-.07-2.11-.1Z"/>
      <path class="cls-6" d="M188.61,8.92c-.57,3.11-.1,6.24-.16,9.36-.22,10.84-.41,21.67-.61,32.51-1.44-.16-1.29-1.25-1.25-2.21,.57-12.56,.67-25.12,.58-37.68,0-1.01-.04-2.05,1.44-1.98Z"/>
      <path class="cls-6" d="M242.64,41.89c-.07-8.9,1.31-17.71,1.76-26.58,1.39,3.49,.92,7.2,.49,10.66-.58,4.67,.14,9.4-.99,14.01-.21,.85,.02,1.83-1.26,1.91Z"/>
      <path class="cls-6" d="M73.22,64.33c-2.53-7.17-5.05-14.34-6.53-21.83,2.16,1.44,2.51,3.83,2.75,6.04,.2,1.86,.35,3.62,1.39,5.23,2.07,3.22,1.85,6.99,2.4,10.57Z"/>
      <path class="cls-6" d="M90.64,69.75c-4.17,2.19-8.95,2.5-13.27,4.23-1,.4-1.39-.34-1.64-1.15-.6-2.04-1.64-3.94-1.79-6.11,2.07-.05,2.02,1.73,2.11,2.89,.26,3.38,2.29,3.09,4.4,2.23,3.29-1.35,6.69-1.9,10.19-2.09Z"/>
      <path class="cls-6" d="M180.84,54.02c-3.95-5.07-6.75-10.87-10.33-16.17,2.35,.14,2.64,2.37,3.6,3.77,2.4,3.48,4.99,6.86,6.69,10.78,.25,.58,.41,1.07,.04,1.62Z"/>
      <path class="cls-6" d="M86.2,34.22c1.92,5.6,3.03,11.42,4.51,17.14-.68-.04-1.36-.02-1.56-.94-1.16-5.18-2.78-10.25-3.46-15.54-.03-.2,.33-.44,.51-.66Z"/>
      <path class="cls-6" d="M200.75,36.59c.03-5.51,.06-11.02,.1-16.53,2.13,2.03,1.82,4.72,1.59,7.18-.24,2.56-1.03,5.06-.54,7.69,.15,.82-.11,1.56-1.15,1.66Z"/>
      <path class="cls-6" d="M227.91,66.74c3.57,.1,6.99,1.58,10.62,1.19-1.87,1.32-4.14-.07-6.11,.87-.17,1.12,1.25,.74,1.4,1.51-.58,.07-1.17,.13-1.75,.2-.6-.04-1.19-.08-1.79-.11-.59-.04-1.19-.08-1.78-.11-.63-.79-1.92-.6-2.4-1.62,.19-1.03,1.31-1.19,1.81-1.93Z"/>
      <path class="cls-6" d="M240.98,60.81c.4-5.31,.8-10.62,1.19-15.94,2.13,.89,1.08,2.77,1.02,4.09-.17,3.58-.73,7.14-1.11,10.71-.08,.7-.44,1.04-1.1,1.14Z"/>
      <path class="cls-6" d="M144.77,70.33c-3.2,3.66-7.07,6.17-11.96,6.91,.06-.62,.28-1.36,.87-1.4,3.61-.27,5.7-3.07,8.31-4.95,.92-.66,1.8-.6,2.77-.56Z"/>
      <path class="cls-6" d="M92.09,57.26c1.09,2.77,1.76,5.63,2.06,8.59-.36-.02-.99,.06-1.04-.07-1.02-2.65-1.65-5.4-1.79-8.24,0-.08,.5-.18,.77-.27Z"/>
      <path class="cls-6" d="M205.26,32.47c0,3.14,.01,6.29,.02,9.43-1.4-1.78-1.41-7.61-.02-9.43Z"/>
      <path class="cls-6" d="M201.47,13.55c-.02-.49-.12-.98-.06-1.46,.38-2.82-.84-4.02-3.65-3.73-.57,.06-1.16-.07-1.74-.11,.96-1.06,2.36-.68,3.51-.9,1.04-.2,2.64,.5,2.77,1.59,.18,1.5,1.2,3.42-.83,4.61Z"/>
      <path class="cls-6" d="M184.72,61.01c-1.46-2.19-3.05-4.31-3.83-6.87,2.46-.55,2.31,1.88,3.04,2.99,.65,.99,1.04,2.48,.79,3.88Z"/>
      <path class="cls-6" d="M205.47,50.77c.02,3.35,.65,6.75-.63,10.02-.29-3.07-.68-6.14-.45-9.23,.04-.54,.58-.71,1.08-.79Z"/>
      <path class="cls-6" d="M60.89,30.35c-2.34,.94-4.69,1.86-7.23,2.18,1.81-2.24,5.28-3.28,7.23-2.18Z"/>
      <path class="cls-6" d="M354.9,92.09c1.28-.64,2.56-1.29,3.83-1.93,1.08,.62,1.13,1.66,.68,2.55-.49,.98-1.37,.29-2.08,.09-.82-.22-1.82,.19-2.44-.72Z"/>
      <path class="cls-6" d="M187.82,52.53c.15,2.56,.2,5.13-.2,7.67-1.6-1.84-1.48-6.24,.2-7.67Z"/>
      <path class="cls-6" d="M64.54,35.54c-1-1.82-.43-4.59-3.2-5.34,.29-.67,.62-1.22,1.51-.8,1.67,.78,2.63,4.22,1.69,6.14Z"/>
      <path class="cls-6" d="M337.66,38.41c-.48-2.15-.96-4.29-1.43-6.44,2.14,.98,2.72,3.62,1.43,6.44Z"/>
      <path class="cls-6" d="M324.72,79.69c1.18-1.62,2.37-3.24,3.55-4.87,.32,2.72-1.13,4.15-3.55,4.87Z"/>
      <path class="cls-6" d="M170.55,37.87c-2.89-2.06-.41-3.56,.55-5.22-.18,1.74-.36,3.48-.55,5.22Z"/>
      <path class="cls-6" d="M66.19,40.7c-.47-1.57-.94-3.13-1.41-4.7,2.2,1.05,2.19,2.76,1.41,4.7Z"/>
      <path class="cls-6" d="M240.69,65.64c-.79-1.25-.54-2.5-.03-3.76,1.28,1.25,1.25,2.5,.03,3.76Z"/>
      <path class="cls-6" d="M90.92,52.52c.54,.92,.7,1.93,.72,2.98-2.06-.55-1.57-1.72-.72-2.98Z"/>
      <path class="cls-6" d="M242.73,70.31c-1.46,.88-2.93,.77-4.41,.04,1.47-.01,2.94-.03,4.41-.04Z"/>
      <path class="cls-6" d="M201.2,18.24c.07-.96,.14-1.93,.21-2.89,.7,1.02,.92,2.01-.21,2.89Z"/>
      <path class="cls-6" d="M351.93,92.63c.4-.06,.8-.12,1.2-.18-.28,.85-.67,1.01-1.2,.18Z"/>
      <path class="cls-6" d="M204.83,62.02c0,.58,0,1.15,0,1.73-.68-.58-.68-1.16,0-1.73Z"/>
      <path class="cls-6" d="M148.75,62c.05,.57,.1,1.15,.15,1.72-.92-.5-.88-1.08-.15-1.72Z"/>
      <path class="cls-6" d="M205.41,46.65c.01,.58,.02,1.16,.04,1.74-.72-.57-.72-1.15-.04-1.74Z"/>
      <path class="cls-6" d="M244.63,14.16c-.01-.34-.03-.68-.04-1.02,.4,.03,1.05-.43,1.11,.31,.05,.56-.6,.62-1.07,.71Z"/>
      <path class="cls-8" d="M359.65,120.43c-6.96-3.37-13.92-6.76-20.89-10.12-16.13-7.78-32.99-13.57-50.23-18.34-1.12-.31-2.33-.41-3.28-1.19,.89-.71,1.86-.47,2.79-.15,6.26,2.12,12.8,3.34,19.01,5.51,4.47,1.56,8.76,3.79,13.3,5.15,4.35,1.31,8.67,2.89,12.66,4.79,4.78,2.27,9.6,4.6,14.29,7.12,3.58,1.93,7.22,3.76,10.82,5.64,.68,.35,1.51,.58,1.52,1.59Z"/>
      <path class="cls-8" d="M453.07,264.02c6.27-12.54,2.94-25.13,.06-37.65-1.12-4.86-2.84-9.58-4.29-14.36,1.24,.06,1.23,1.16,1.47,1.93,1.63,5.11,3.15,10.24,4.57,15.42,2.16,7.83,2.47,15.78,2.73,23.76,.13,4.23-.8,8.2-4.54,10.91Z"/>
      <path class="cls-8" d="M384.25,136.04c-5.03-3.22-10.05-6.44-15.09-9.65-3.05-1.94-6.12-3.85-9.18-5.77,1.77-.41,3.02,.31,4.51,1.35,4.88,3.42,10,6.52,15.02,9.74,1.83,1.17,3.74,2.26,4.74,4.33Z"/>
      <path class="cls-8" d="M412.24,159.38c-5.08-4.36-10.08-8.79-14.84-13.49,2.61-.54,3.22,1.83,4.72,3.04,3.03,2.44,5.72,5.22,8.64,7.75,.86,.74,1.55,1.49,1.47,2.7Z"/>
      <path class="cls-8" d="M444.62,202.63c-3.46-5.14-6.45-10.55-9.48-15.94,3.79,1.03,3.93,4.96,5.71,7.52,1.16,1.67,1.8,3.8,3.21,5.39,.84,.95,.56,1.99,.57,3.03Z"/>
      <path class="cls-8" d="M276.39,88.91c-4.2-1.65-8.79-1.74-13.05-3.21,1.35-1.42,2.83-.12,4.11,.04,5.76,.73,11.36,2.19,16.63,4.75-2.68,.04-5.05-1.43-7.69-1.58Z"/>
      <path class="cls-8" d="M217.87,80.26c-6.52-.11-13.03-.22-19.55-.34,.29-.62,.82-.76,1.44-.76,5.81-.02,11.62-.14,17.39,.64,.25,.03,.48,.3,.71,.46Z"/>
      <path class="cls-8" d="M396.29,145.11c-4.21-2.75-8.27-5.71-12.04-9.06,3.54,.82,5.88,3.6,8.74,5.5,1.29,.86,2.95,1.69,3.3,3.55Z"/>
      <path class="cls-8" d="M255.68,84.4c-6.42-.7-12.83-1.4-19.16-2.73,6.15-.58,12.07,1.32,18.13,1.79,.37,.03,.69,.62,1.03,.94Z"/>
      <path class="cls-8" d="M432.74,183.21c-2.66-2.72-4.74-5.89-6.87-9.02,3.59,.27,3.79,3.89,5.6,5.89,.61,.67,1.6,1.79,1.27,3.13Z"/>
      <path class="cls-8" d="M419.78,167.29c-2.82-2.33-5.28-4.99-7.51-7.88,4.02,1.19,5.67,4.63,7.51,7.88Z"/>
      <path class="cls-8" d="M164.75,82.18c-4.47,1.12-9.05,1.63-13.61,2.26,2.88-1.96,6.36-1.49,9.52-2.32,1.31-.34,2.76-1.4,4.09,.06Z"/>
      <path class="cls-8" d="M447.46,272.7c1.65-2.51,2.44-5.57,4.86-7.59-.57,3.21-1.86,5.95-4.86,7.59Z"/>
      <path class="cls-8" d="M448.37,210.81c-1.55-2.59-2.99-5.24-3.75-8.19,2.17,2.31,3.61,4.95,3.75,8.19Z"/>
      <path class="cls-8" d="M437.04,280.61c1.92-1.06,3.84-2.12,5.76-3.19-1.61,1.62-2.39,4.73-5.76,3.19Z"/>
      <path class="cls-8" d="M442.77,277.43c1.36-1.78,2.95-3.33,4.69-4.73-.27,2.86-2.39,3.89-4.69,4.73Z"/>
      <path class="cls-8" d="M194.23,80.06c-4.14,.17-8.29,.35-12.43,.52,.3-.8,.98-.87,1.69-.83,3.58,.21,7.18-.52,10.74,.31Z"/>
      <path class="cls-8" d="M423.95,171.92c-1.47-.78-2.35-2.07-3.06-3.51,1.78,.51,2.66,1.8,3.06,3.51Z"/>
      <path class="cls-8" d="M149.98,84.57c-1.5,.72-3.12,.93-4.75,1.02,1.32-1.58,2.93-1.81,4.75-1.02Z"/>
      <path class="cls-8" d="M171.8,81.39c-1.91,.73-3.89,.83-5.9,.7,1.9-.81,3.78-1.77,5.9-.7Z"/>
      <path class="cls-4" d="M430.26,282.66c1.53-.92,3.2-1.34,4.96-1.5,.02,.18,.02,.37,.02,.55-1.61,.58-3.19,1.32-4.98,.95Z"/>
      <path class="cls-8" d="M230.33,81.16c-1.59-.13-3.18-.26-4.77-.38,1.64-.54,3.29-1.08,4.77,.38Z"/>
      <path class="cls-8" d="M262.18,85.53c-1.54,.05-2.99-.33-4.41-.88,1.56-.14,3.22-.79,4.41,.88Z"/>
      <path class="cls-8" d="M425.63,173.88c-.78-.47-1.44-1.05-1.69-1.97,1.54-.19,2,.56,1.69,1.97Z"/>
      <path class="cls-8" d="M177.71,80.81c-1.19,.21-2.36,.63-3.59,.38,1.07-1.36,2.31-1.03,3.59-.38Z"/>
      <path class="cls-8" d="M144.08,85.8c-.52,.5-1.16,.47-1.8,.38,.35-1.3,.94-1.5,1.8-.38Z"/>
      <path class="cls-8" d="M433.94,184.96c-.76-.35-1.05-1.02-1.21-1.78,1.02,.17,1.38,.79,1.21,1.78Z"/>
      <path class="cls-8" d="M435.15,186.71c-.77-.34-1.12-.97-1.23-1.77,.98,.2,1.35,.81,1.23,1.77Z"/>
      <path class="cls-8" d="M234.4,81.56c-.8,.12-1.59,.13-2.34-.24,.85-.58,1.64-.69,2.34,.24Z"/>
      <path class="cls-4" d="M427.55,283.05c.58-.07,1.17-.14,1.75-.21-.5,.77-1.09,.81-1.75,.21Z"/>
      <path class="cls-8" d="M435.24,281.71c0-.18,0-.37-.02-.55,.22-.04,.44-.09,.66-.13-.21,.23-.43,.45-.64,.68Z"/>
      <path class="cls-4" d="M53.11,232.65c.25,.16,.51,.31,.76,.47-.39,.07-.63-.11-.76-.47Z"/>
      <path class="cls-4" d="M414.56,289.82c-.2,0-.39,0-.59,0,.2-.28,.4-.28,.59,0Z"/>
      <path class="cls-8" d="M397.42,145.9c-.26-.17-.51-.34-.77-.51,.26,.17,.51,.34,.77,.51Z"/>
      <path class="cls-4" d="M54.26,233.3c.24,.14,.47,.28,.71,.42-.24-.14-.48-.28-.71-.42Z"/>
      <path class="cls-2" d="M227.91,66.74c-.51,.73-1.62,.9-1.81,1.93-1.53-.64-3.07-1.22-4.65-.12-1.8-.92-2.71,.25-3.58,1.52-1.37,.03-2.74,.06-4.11,.09-.58-1.66,1.92-1.5,1.72-2.93,2.13-1.82,2.59-4.21,2.51-6.89-.24-7.46-.89-14.92,.11-22.99,3.11,10.22,6.34,19.85,9.82,29.39Z"/>
      <path class="cls-6" d="M217.87,70.06c.87-1.26,1.79-2.43,3.58-1.52,.01,.19,.04,.38,.07,.56-.63,.37-1.25,.73-1.88,1.1-.59-.05-1.18-.1-1.77-.14Z"/>
      <path class="cls-6" d="M66.34,84.23c.9,.62,1.31,1.45,1.13,2.55-1.11-.53-.98-1.6-1.13-2.55Z"/>
      <path class="cls-6" d="M66.41,83.83s0,.22,0,.22c-.17,.01-.34,.03-.51,.04,.17-.09,.33-.17,.5-.26Z"/>
      <path class="cls-2" d="M293.37,64.24c1.65,.16,2.53,.52,2.22,2.71-.5,3.51,1.84,7.04,4.63,7.96,.97,.98,1.93,1.96,2.9,2.94-.47,.32-1.16,1.03-1.37,.91-3.67-2.11-7.96-1.73-11.82-3.07-1.62-.56-2.88-.98-1.36-2.93,.24-.31,.04-.94,.05-1.43,0,0,0,0,0,0,2.75-.79,4.15-2.55,3.97-5.46,0,0,.02,.09,.02,.09,1.11-.18,.79-1.02,.78-1.71l-.03-.02Z"/>
      <path class="cls-10" d="M181.87,170.91c-.82-8.53,2.48-16.21,7.36-23.19,3.79-5.42,9-9.3,15.88-9.86,10.03-.82,19.84-3.71,30-3.21,5.74,.28,11.3,1.53,16.9,2.7,3.08,.64,6.04,1.38,9,2.45,5.78,2.09,11.35,4.63,16.97,7.09,4.14,1.81,8.2,3.83,12.26,5.74,7.09,3.34,12.73,8.67,16.68,15.68,2.04,3.61,5.37,6.56,6.56,10.59,2.39,8.03-.92,14.71-5.72,20.89-3.24,4.17-7.8,7.07-10.84,11.49-.96,1.4-2.92,2.31-4.62,2.96-4.98,1.9-9.28,5.18-14.59,6.53-2.47,.63-4.97,.55-7.43,1.28-5.29,1.58-10.61,3.05-16.3,3.05-7.72-.01-15.1-1.59-22.43-3.71-2.23-3.57-6.53-2.71-9.63-4.49-4.72-2.71-9.81-4.56-14.97-6.34-7.12-2.46-12.66-7.18-17.45-13.05-3.05-3.74-5.17-7.83-6.47-12.27-1.31-4.5-1.33-9.27-1.18-14.31Zm100.48-15.7c-.23-.16-.45-.32-.68-.47-.08-.13-.19-.19-.35-.19-.27-.16-.55-.32-.82-.47-.08-.12-.19-.17-.33-.15-.27-.15-.55-.31-.82-.46h.01c-.55-.83-1.4-1.15-2.33-1.31-.74-.38-1.48-.77-2.22-1.15-2.05-1.4-4.27-2.39-6.74-2.8-.29-.08-.57-.16-.86-.24-2.61-1.69-5.52-2.45-8.58-2.77-.3-.05-.6-.1-.9-.15-3.6-1.99-7.62-2.09-11.56-2.49-.58-.06-1.17-.13-1.75-.19-.56-.53-1.17-.52-1.82-.19-.38-.05-.77-.1-1.15-.15-7.5-1.38-14.96-.76-22.37,.65-3.69,.7-7.57,.89-10.86,3.06-1.07,.06-2.03,.42-2.89,1.07-.94,.19-1.83,.47-2.45,1.28-.36,.17-.73,.35-1.09,.52-1.21,.29-2.27,.81-2.94,1.92-7.96,3.98-13.25,14.48-12.02,23.46,1.06,7.68,4.94,13.82,10.23,19.13,9.25,9.29,20.63,14.91,33.07,18.55,17.25,5.05,34.62,6.27,51.93,.56,7.51-2.48,14.46-6.25,18.72-13.48,1.08-.77,1.5-1.91,1.77-3.14l.46-1.15c.48-.31,.61-.78,.56-1.32,.11-.47,.21-.94,.32-1.41,.99-1.18,.81-2.55,.66-3.92,.15-1.36,.23-2.72-.14-4.06-.06-4.04-1.12-7.73-3.72-10.9,0-.16-.06-.28-.19-.37-.53-1.69-1.52-3.05-2.9-4.15h0c-.28-1.26-1.16-2.01-2.2-2.62-.01-.14-.08-.24-.21-.31-.09-.54-.5-.7-.96-.8h0c-.2-.21-.4-.44-.6-.66-.26-.3-.52-.6-.78-.91-.21-.58-.56-.99-1.2-1.11l-.04-.04c-.12-.51-.48-.74-.98-.79h.02c-.18-.66-.59-1.04-1.29-1.05-.08-.12-.19-.18-.33-.18-.42-.87-1.09-1.42-2.07-1.55-.07-.12-.17-.18-.31-.19-.25-.2-.51-.41-.76-.61-.22-.15-.44-.29-.66-.44-.2-.49-.6-.7-1.1-.76-.33-.22-.66-.43-.99-.65-.27-.15-.55-.29-.82-.44h.02Z"/>
      <path class="cls-3" d="M300.55,250.95c-1.51,0-2.13-.13-2.29-1.02-.22-1.23,.3-2.11,1.26-2.76,3.47-2.34,6.93-4.69,10.43-7,2.77-1.82,5.54-3.64,8.38-5.35,.99-.59,2.33-1.76,3.25,0,.72,1.38,.18,2.67-1.17,3.54-4.19,2.69-8.38,5.38-12.57,8.07-1.79,1.15-3.57,2.33-5.36,3.49-.83,.54-1.68,1.01-1.93,1.02Z"/>
      <path class="cls-3" d="M161.76,118.03c.4-6.05,1.31-12.56,1.26-19.13-.01-1.79,1.04-2.75,2.82-2.6,2.18,.18,1.5,1.55,1.35,3-.73,6.9-1.27,13.81-1.88,20.72-.05,.58,.01,1.21-.19,1.74-.33,.87-.53,2.16-1.8,1.93-1.02-.18-1.55-1.14-1.56-2.24,0-.98,0-1.96,0-3.43Z"/>
      <path class="cls-7" d="M416.88,221.97c-.01,.63-.2,1.19-.77,1.5-1.14,.64-2.14,.09-3.01-.56-3.46-2.57-6.89-5.19-10.32-7.82-2.02-1.55-4.03-3.12-5.99-4.75-.86-.72-1.57-1.71-.61-2.79,.82-.93,1.95-.93,2.94-.19,5.58,4.17,11.15,8.35,16.71,12.56,.64,.49,.94,1.24,1.04,2.05Z"/>
      <path class="cls-7" d="M214.25,110.58c0,.89,0,1.08,0,1.28,0,1.58,.16,3.58-1.96,3.61-2.12,.03-1.96-1.98-2.06-3.56-.32-4.88-.69-9.75-1.04-14.62-.05-.68-.11-1.37-.1-2.05,.02-1.8,.05-4.02,2.28-4.09,2.45-.07,2.18,2.3,2.25,4,.21,5.38-.17,10.77,.63,15.44Z"/>
      <path class="cls-7" d="M166.41,179.99c-.32,1.24-.73,2.95-1.19,4.65-1.36,5.01-2.74,10.01-4.1,15.02-.37,1.38-1.1,2.49-2.64,2.07-1.22-.33-1.36-1.52-1.05-2.68,1.75-6.62,3.49-13.25,5.28-19.86,.29-1.07,.87-2.06,2.25-1.88,1.26,.17,1.46,1.13,1.45,2.68Z"/>
      <path class="cls-7" d="M357.38,145.93c1.8-.34,3.25,.3,4.48,1.58,4.16,4.35,8.31,8.72,12.51,13.04,1.65,1.69,.91,2.92-.56,4.12-1.35-.37-2.29-1.32-3.3-2.22-1.4-1.26-2.39-3.03-4.31-3.67,0,0,0,.05,0,.05,.05-.54-.18-.91-.68-1.12,0,0-.02-.02-.02-.02-.73-1.08-1.4-2.22-2.86-2.46,0,0,.02,.02,.02,.02-.53-2.02-2.37-2.97-3.66-4.35-1.36-1.46-2.12-2.98-1.63-4.98Z"/>
      <path class="cls-3" d="M330.65,133.95c-3.15-.96-7.09-.86-10.93-1.42-2.41-.35-4.78-.87-7.24-.94-1.46-.05-3.21-.49-2.91-2.49,.27-1.82,1.7-1.93,3.39-1.68,6.16,.93,12.34,1.73,18.53,2.48,1.42,.17,2.19,.67,2.16,2.16-.03,1.57-.97,2-2.99,1.88Z"/>
      <path class="cls-3" d="M134.49,194.34c1.32,.44,4.12-1.15,4.08,1.89-.03,2.62-2.55,2.06-4.36,2.18-5.16,.35-10.32,.74-15.48,1.12-.2,.01-.39,.04-.59,.02-1.63-.17-3.99,.64-4.15-1.96-.18-2.91,2.35-1.94,3.91-2.06,5.45-.45,10.9-.79,16.59-1.19Z"/>
      <path class="cls-7" d="M214.31,246.64c-5.59-.33-11.17-.65-16.76-.99-1.28-.08-2.54-.56-2.52-1.95,.02-1.65,1.58-2.06,2.82-1.9,5.67,.76,11.41-.09,17.06,.94,.58,.11,1.17,.18,1.72,.35,1.13,.36,1.95,1.03,1.72,2.36-.23,1.27-1.23,1.36-2.27,1.35-.59,0-1.18,0-1.77,0v-.17Z"/>
      <path class="cls-7" d="M84.43,193.17c-.17-.07-.35-.1-.54-.09-.3-.46-.74-.63-1.27-.62,0,0,.04,.02,.04,.02-.21-.57-.62-.77-1.21-.63,0,0,.06,0,.06,0-.57-1.76-2.16-2.25-3.61-2.92,0,0,.02,.02,.02,.02-.36-.76-.97-1.13-1.8-1.19,0,0,0,.01,0,.01-1.58-1.94-3.63-3.22-5.91-4.16,0,0,.02,.02,.02,.02-.63-1.3-2.55-2.08-1.7-3.95,.6-1.32,1.85-.6,2.82-.73,0,0,0,0,0,0,4.17,3.82,9.23,6.34,13.92,9.41,2.12,1.39,2.61,2.65,1.3,4.71-.16-.02-.31,0-.45,.07-.57,0-1.14,.02-1.71,.03Z"/>
      <path class="cls-10" d="M133.35,99.66c.36-1.41,.26-3,1.59-3.73,1.59-.87,2.56,.48,3.44,1.5,4.14,4.79,8.7,9.24,12.19,14.58,.96,1.47,1.5,3.06-.03,4.5-1.34,1.26-2.6,.81-3.91-.23-5.24-4.17-8.76-9.77-12.64-15.07-.33-.45-.44-1.05-.64-1.54Zm15.37,16.2c1.71-.36,1.79-1.74,.94-2.82-3.89-4.9-7.93-9.68-11.96-14.47-.63-.74-1.57-1.47-2.54-.64-1.02,.87-.65,1.93,.12,2.86,3.79,4.61,7.58,9.22,11.37,13.83,.51,.62,1.06,1.17,2.07,1.24Z"/>
      <path class="cls-7" d="M103.58,127.02c.11,.03,.21,0,.3-.08,2.76-2.86,4.77-6.3,7.24-9.39,.17,.04,.34,.02,.5-.06,.75,.23,1.51,.46,2.27,.68,0,0-.02-.06-.02-.06,.37,2.83-2.32,3.84-3.46,5.77-2.63,4.45-5.99,8.4-9.1,12.51-.58,.77-1.35,1.55-2.46,.66-1.04-.84-1.07-1.77-.22-2.78,.5-.59,1.12-1.12,1.18-1.97,0,0-.02,.01-.02,.01,1.62-1.51,3.01-3.19,3.8-5.29Z"/>
      <path class="cls-10" d="M227.36,270.72c1.59,.59,2.76,.17,3.82-1.22,4.17-5.46,8.42-10.86,12.64-16.28,.24-.31,.5-.62,.66-.97,.42-.91,1.58-1.89,.27-2.82-1.25-.89-2.26,0-3.01,.96-2.5,3.15-4.88,6.42-7.45,9.51-2.3,2.77-4.03,6.03-6.88,8.34-.18-.93,.12-1.66,.72-2.42,4.52-5.76,9.01-11.55,13.46-17.37,.9-1.18,1.98-1.11,3.15-.79,1.28,.35,1.44,1.33,1.51,2.52,.15,2.77-1.78,4.64-3.2,6.4-3.42,4.25-6.91,8.43-9.98,12.97-1.96,2.9-3.73,3.21-5.72,1.18Z"/>
      <path class="cls-10" d="M350.18,203.2c-.19,1.85-1.62,1.93-2.85,1.67-3.65-.77-7.33-.11-11-.39-3.12-.24-5.95-1.74-9.16-1.51-1.45,.1-2.42-1.32-2.31-2.9,.11-1.51,1.17-2.13,2.63-2.22,4.52-.29,9.02,.21,13.46,.85,2.47,.35,4.9,.11,7.33,.35,1,.1,2.68-.43,2.06,1.71-2.52-1.08-5.22-.63-7.83-.9-4.56-.48-9.16-.67-13.75-.93-1.17-.07-2.21,.3-2.26,1.71-.05,1.38,1.02,1.48,2.03,1.54,7.21,.4,14.4,1.5,21.65,1.03Z"/>
      <path class="cls-10" d="M78.49,155.77c.81-5.06,.62-10.15,.57-15.24-.02-1.52,.78-2.73,1.56-3.69,1.09-1.35,2.71-1.68,3.8,.3,.56,1.02,1.43,2.09,1.09,3.28-1.02,3.54,0,7.24-1.02,10.76-.67,2.32,.65,4.7-.51,7.17-.8,1.7-1.27,3.12-3.35,2.79-2.01-.32-2.23-1.91-2.15-3.6,.03-.59,0-1.18,0-1.77Zm1.17,.25s-.05,0-.07,0c0,.78-.04,1.57,.01,2.35,.06,.86,.48,1.54,1.4,1.62,1.1,.1,1.64-.64,1.72-1.6,.57-6.23,1.13-12.47,1.58-18.71,.07-1.02-.32-2.43-1.57-2.51-1.4-.08-1.87,1.17-1.96,2.45-.37,5.46-.75,10.93-1.12,16.39Z"/>
      <path class="cls-10" d="M99.79,132.3c-.06,.85-.68,1.38-1.18,1.97-.85,1.01-.81,1.94,.22,2.78,1.1,.89,1.87,.11,2.46-.66,3.12-4.11,6.47-8.05,9.1-12.51,1.14-1.93,3.83-2.94,3.46-5.77,1.36,1.39,.62,2.79-.22,3.96-3.76,5.27-7.67,10.43-11.42,15.71-1.3,1.82-2.94,1.45-4.37,.76-1.68-.8-1.18-2.51-.71-3.88,.41-1.21,1.11-2.32,2.65-2.37Z"/>
      <path class="cls-10" d="M337.18,255.74c-1.48-.33-1.78-1.51-1.72-2.71,.34-6.68-.71-13.31-.65-19.98,.01-1.22,.46-2.29,.73-3.43,.33-1.38,1.44-1.92,2.61-1.99,1.27-.08,1.83,.92,1.99,2.1l-.12,.11c-2.84-.83-4.06-.03-4.01,2.98,.11,6.77,.37,13.54,.61,20.31,.03,.86,.38,1.71,.59,2.56l-.04,.04Z"/>
      <path class="cls-10" d="M86.6,193.07c1.31-2.06,.82-3.32-1.3-4.71-4.68-3.06-9.74-5.59-13.92-9.41,3.22,1.32,7.06,1.07,9.36,4.7,1.23,1.94,3.72,3.09,5.98,4.02,1.16,.48,2.32,.95,2.3,2.28-.01,1.5-.67,2.81-2.43,3.11Z"/>
      <path class="cls-10" d="M340.15,229.73c1.45,.22,1.15,1.36,1.15,2.28,.02,6.83,0,13.66,.02,20.49,0,1.4-.36,2.7-1.07,3.88-.41,.69-1.07,1.12-1.96,1.06-1.14-.08-1.06-.94-1.11-1.71,0,0,.04-.04,.04-.04,2.28,.33,2.94-.94,2.93-2.93-.05-7.64-.08-15.28-.12-22.92l.12-.11Z"/>
      <path class="cls-10" d="M293.36,127.7c-1.5-.34-1.98-1.78-2.9-2.73-.96-.98-2-2.31-3.41-1.03-1.3,1.18-.05,2.21,.71,3.23,1.62,2.18,3.95,3.76,5.26,6.2-3.65-1.47-5.78-4.5-7.65-7.7-.47-.81-.53-2.28,.52-2.98,1.2-.8,2.82-.88,3.91-.07,1.68,1.25,3.59,2.55,3.57,5.08Z"/>
      <path class="cls-10" d="M331.36,180.53c1.68,.65,2.72,.01,3.59-1.5,1.9-3.29,3.36-6.83,5.74-9.84,.79,2.94-2,4.49-2.72,6.87-.47,1.55-1.68,2.81-2.25,4.41-.4,1.13-1.57,1.84-2.8,1.79-.87-.03-1.69-.57-1.55-1.73Z"/>
      <path class="cls-10" d="M379.07,254.67c-1.4-2-2.8-3.99-4.21-5.99-.52-.74-1.07-1.44-2.14-1.19-1.28,.3-1.28,1.31-1.28,2.32-1.88-.5-1.21-1.72-.63-2.69,.83-1.37,2.47-1.23,3.33-.52,2.53,2.07,4.88,4.41,4.93,8.07Z"/>
      <path class="cls-10" d="M357.38,145.93c-.49,2,.26,3.52,1.63,4.98,1.29,1.38,3.13,2.33,3.66,4.35-3.11-.71-4.48-3.49-6.25-5.64-.65-.79-1.33-2.98,.96-3.69Z"/>
      <path class="cls-10" d="M111.11,117.55c-2.47,3.08-4.48,6.53-7.24,9.39,.69-3.76,3.35-6.34,5.59-9.15,.25-.32,1.09-.17,1.65-.24Z"/>
      <path class="cls-10" d="M71.38,178.96c-.98,.12-2.23-.6-2.82,.73-.85,1.88,1.07,2.66,1.7,3.95-1.23,.03-2.51-.09-2.87-1.46-.37-1.44-.34-3.07,.75-4.19,1.48-1.52,2.57-.72,3.24,.97Z"/>
      <path class="cls-10" d="M366.19,158.78c1.93,.64,2.91,2.41,4.31,3.67,1.01,.91,1.95,1.85,3.3,2.22-.51,.85-1.47,.94-2,.44-2.07-1.93-4.67-3.41-5.62-6.33Z"/>
      <path class="cls-10" d="M70.23,183.62c2.28,.95,4.32,2.23,5.91,4.16-2.97,.03-4.95-1.33-5.91-4.16Z"/>
      <path class="cls-10" d="M293.63,134.48c2.09,1.1,3.54,2.81,4.67,4.83-2.72-.49-3.92-2.44-4.67-4.83Z"/>
      <path class="cls-10" d="M301.13,136.47c-1.75-1.26-3.2-2.8-4.18-4.74,2.31,.78,3.99,2.1,4.18,4.74Z"/>
      <path class="cls-10" d="M103.58,127.02c-.79,2.1-2.18,3.78-3.8,5.29,.18-2.54,1.35-4.38,3.8-5.29Z"/>
      <path class="cls-10" d="M298.26,139.29c1.44,.83,2.54,2.94,4.67,1.28,.14,1.77-1.02,1.87-2.28,1.72-1.76-.2-2.56-1.23-2.38-3.01Z"/>
      <path class="cls-10" d="M373.35,253.22c1.64,1.18,2.55,2.84,3.01,4.77-2.15-.86-2.69-2.74-3.01-4.77Z"/>
      <path class="cls-10" d="M77.91,188.94c1.45,.66,3.04,1.16,3.61,2.92-1.8-.24-3.3-.85-3.61-2.92Z"/>
      <path class="cls-10" d="M362.64,155.24c1.45,.24,2.13,1.38,2.86,2.46-1.65,0-2.75-.67-2.86-2.46Z"/>
      <path class="cls-10" d="M372.11,250.96c.79,.55,1.24,1.29,1.29,2.27-1.75,0-2.42-.62-1.29-2.27Z"/>
      <path class="cls-10" d="M295.69,130.09c-1.32-.31-2.13-1.1-2.34-2.47,1.09,.53,2.94,.34,2.34,2.47Z"/>
      <path class="cls-10" d="M302.92,138.78c-.65-.75-1.6-1.25-1.82-2.34,1.23,.29,2.66,.43,1.82,2.34Z"/>
      <path class="cls-10" d="M113.87,118.18c-.76-.23-1.51-.46-2.27-.68,1.06-.77,1.97-1.06,2.27,.68Z"/>
      <path class="cls-10" d="M76.13,187.78c.82,.05,1.44,.43,1.8,1.19-.88,.03-1.77,.08-1.8-1.19Z"/>
      <path class="cls-10" d="M227.44,268.15c-.01,.8-.02,1.59-.03,2.39-.88-.81-.99-1.6,.03-2.39Z"/>
      <path class="cls-10" d="M84.43,193.17c.57,0,1.14-.02,1.71-.03-.56,.69-1.13,.73-1.71,.03Z"/>
      <path class="cls-10" d="M292.97,133.36c.54,.23,.84,.59,.66,1.22-.66-.16-.71-.66-.66-1.22Z"/>
      <path class="cls-10" d="M81.47,191.86c.58-.14,.99,.06,1.21,.63-.52,.02-.99-.05-1.21-.63Z"/>
      <path class="cls-10" d="M82.63,192.47c.53-.02,.97,.16,1.27,.62-.54,.03-1.03-.04-1.27-.62Z"/>
      <path class="cls-10" d="M350.22,203.14c.11-.3,.22-.6,.33-.9,.26,.44,.06,.7-.33,.9Z"/>
      <path class="cls-10" d="M296.39,131.16c-.54-.21-.9-.53-.71-1.18,.67,.13,.73,.63,.71,1.18Z"/>
      <path class="cls-10" d="M365.52,157.72c.5,.2,.73,.57,.68,1.12-.52-.19-.64-.63-.68-1.12Z"/>
      <path class="cls-10" d="M297.01,131.75c-.4-.02-.61-.24-.64-.63,.21,.21,.43,.42,.64,.63Z"/>
      <path class="cls-4" d="M195.44,331.62c-.69,3.22-1.54,6.41-2.02,9.66-1.04,7.06-.62,13.92,3.55,20.09,.4,.6,1.04,1.17,.32,2.07-2.69,3.37-5.08,7.01-8.61,9.61-2,1.47-4.19,2.91-6.77,1.58-2.46-1.27-3.01-3.74-3.1-6.29-.23-7.2,2.49-13.64,5.39-20,2.8-6.14,6.29-11.87,11.24-16.73Z"/>
      <path class="cls-4" d="M409.24,342.27c1.24,.07,2.39,.47,3.3,1.51,3.47,3.91,5.1,9.11,8.91,12.79,.31,.3,.2,.65,0,1.05-1.6,2.97-6.57,4.47-9.26,2.59-4.92-3.45-7.12-8.24-6.49-14.25,.21-2.07,1.18-3.52,3.55-3.68Z"/>
      <path class="cls-4" d="M428,347.54c-2.14-3.34-2.81-6.97-5.06-9.9-1.57-2.04-3-4.14-5.16-5.55-1.33-.86-1.59-1.65-.93-3.13,1.44-3.2,2.67-6.49,4.05-9.92,6.1,8.57,10.17,17.4,7.1,28.49Z"/>
      <path class="cls-4" d="M205.81,352.72c-.81-6.29-1.31-11.64,.18-16.97,.76-2.69,1.81-5.18,3.71-7.25,.45-.49,.82-1.36,1.55-1.16,.89,.24,.77,1.25,.89,2,.28,1.68,.03,3.34-.26,4.97-1.09,6.17-3.13,12.02-6.07,18.41Z"/>
      <path class="cls-4" d="M445.29,349.04c-.08,.08-.17,.16-.25,.23,.02-.05,.03-.13,.07-.15,.06-.03,.15-.03,.22-.04,0,0-.04-.04-.04-.04Z"/>
      <path class="cls-9" d="M75.19,375.51c1.49-1.61,2.92-3.05,4.23-4.59,10.82-12.65,18.89-27.02,26.26-41.85,6.93-13.95,11.37-28.89,17.61-43.11,3.6-8.19,7.64-16.16,11.69-24.12,.92-1.82,1.32-1.71,2.68-.15,9.9,11.33,12.28,24.82,11.17,39.17-1.75,22.66-9.66,42.87-25.24,59.66-11.56,12.45-25.77,18.37-42.96,15.87-1.72-.25-3.52,.08-5.45-.86Z"/>
      <path class="cls-4" d="M45.33,382.2c-5.26,2.43-10.31,3.38-15.63,2.91-2.3-.2-4.47-.72-6.42-1.95-.79-.5-1.93-.83-1.68-2.13,.26-1.29,1.36-1.59,2.43-1.83,2.84-.64,5.69-.26,8.52,.03,4.22,.44,8.22,1.83,12.77,2.97Z"/>
      <path class="cls-4" d="M331.91,304.3c-.29,.37-.48,.27-.63-.12,.21,.04,.42,.08,.63,.12Z"/>
      <path class="cls-4" d="M176.75,277.95c-.4,.08-.64-.09-.73-.48,.24,.16,.49,.32,.73,.48Z"/>
      <path class="cls-2" d="M393.58,61.34c4.12,2.8,5.11,6.24,3.74,10.66-2.2,7.05-4.39,14.06-8.1,20.52-1.95,3.39-5.02,3.79-8.35,3.77-1.77-.01-1.15-1.11-.78-2.03,2.78-6.94,5.53-13.88,8.35-20.8,1.63-4,3.37-7.96,5.14-12.11Z"/>
      <path class="cls-2" d="M284.11,26.93c.72,3.58,.47,7.13,.01,10.73-.23,1.86-.65,2.68-2.58,2.5-.91-.09-2.08-.3-2.2,1.21-.56,2.69-1.18,5.37-1.67,8.07-.38,2.06,.17,3.58,2.66,3.44,2.01-.11,2.31,1.03,2.03,2.62-.19,1.06-.57,2.1-.68,3.17-.25,2.51-1.84,3.77-4.08,3.8-2.61,.03-4.29-1.66-4.37-4.25-.16-5.59-.15-11.19-.03-16.78,.1-4.31,.39-8.63,2.65-12.51,.8-.12,1.72,.24,2.24-.82,.87-1.75,2.47-2.23,4.29-2.26,0,0-.08-.05-.08-.05,.2,.66,.72,.71,1.29,.68,.17,.15,.34,.29,.51,.44Z"/>
      <path class="cls-6" d="M282.39,25.86c-1.81,.03-3.42,.5-4.29,2.26-.52,1.06-1.45,.69-2.24,.82,1.34-3.74,3.33-4.68,6.53-3.07Z"/>
      <path class="cls-6" d="M292.6,65.88c.18,2.91-1.22,4.67-3.97,5.46,1.37-1.79,2.26-3.92,3.97-5.46Z"/>
      <path class="cls-6" d="M293.4,64.26c0,.69,.33,1.53-.78,1.71,.04-.67,.15-1.31,.78-1.71Z"/>
      <path class="cls-6" d="M283.6,26.49c-.57,.03-1.09-.02-1.29-.68,.55,0,1.1,0,1.29,.68Z"/>
      <path class="cls-2" d="M360.36,51.57c-.13,.77-.21,2.26-.64,3.66-2.01,6.55-4.06,13.1-6.24,19.6-.66,1.96-2.06,3.58-3.61,4.96-1.85,1.65-3.4,1.06-3.94-1.39-.91-4.13,.83-7.96,1.54-11.86,1.11-6.1,3.34-11.89,6.37-17.34,.97-1.75,2.19-3.13,4.38-2.61,2.3,.54,2.12,2.51,2.13,4.99Z"/>
      <path class="cls-2" d="M308.76,64.1c.96-9.76,3.74-19.02,7.56-28.01,.97-2.27,2.84-1.48,4.24-1.15,2.15,.51,3.59,2.04,3.46,4.47-.05,.97-.31,1.94-.56,2.88-1.99,7.49-3.93,14.99-6.04,22.44-.57,2.01-1.14,4.19-3.55,5.08-3.47,1.28-5.57-.24-5.34-3.98,.04-.58,.15-1.16,.23-1.75Z"/>
      <path class="cls-2" d="M173.24,65.6c-.82,1.67-2.35,1.18-3.61,1.01-1.49-.2-2.75-1.51-4.46-.85-.46,.18-.82-.38-.98-.88-.97-3.17-2.1-6.33,.12-9.45,1.21,.38,1.58,1.94,3,1.75,.14,.17,.29,.34,.43,.51,.79,1.57-.6,4.66,2.99,4.29,.65,1.34,1.16,2.77,2.52,3.62Z"/>
      <path class="cls-6" d="M170.72,61.98c-3.58,.37-2.19-2.72-2.99-4.29,1.68,.95,1.83,2.97,2.99,4.29Z"/>
      <path class="cls-11" d="M285.24,157.06c.22,.15,.44,.29,.66,.44,.08,.42,.33,.63,.76,.61,.14,0,.24,.06,.31,.19,.15,1.24,.79,1.82,2.07,1.55,.14,0,.25,.07,.33,.18,.04,.84,.44,1.23,1.29,1.05,0,0-.02,0-.02,0,.06,.59,.47,.76,.98,.79,0,0,.04,.04,.04,.03,.06,.73,.46,1.11,1.2,1.11,.26,.3,.52,.6,.78,.91,0,.41,.18,.64,.6,.67,0,0,0,0,0,0,.02,.63,.44,.77,.96,.8,.13,.07,.19,.17,.21,.31-.16,1.63,.73,2.37,2.2,2.61,0,0,0,0,0,0,.12,1.97,.77,3.58,2.9,4.15,.12,.09,.19,.22,.19,.37-.02,.39-.18,.85-.03,1.15,1.35,2.72,2.66,5.42,2.34,8.6-.09,.9,.71,1.04,1.41,1.15,.37,1.34,.29,2.7,.14,4.06-1.45,1.1-1.14,2.5-.66,3.92-.11,.47-.21,.94-.32,1.41-.59,.27-.68,.75-.56,1.32-.15,.38-.31,.77-.46,1.15-1.64,.45-2.22,1.51-1.77,3.14-4.26,7.23-11.21,11-18.72,13.48-17.3,5.71-34.68,4.49-51.93-.56-12.44-3.64-23.82-9.26-33.07-18.55-5.29-5.31-9.18-11.45-10.23-19.13-1.23-8.97,4.06-19.48,12.02-23.46,1.56,.24,2.7-.15,2.94-1.92,.36-.17,.73-.35,1.09-.52,1.13,.17,2.18,.2,2.45-1.28,.85-.66,1.81-1.01,2.89-1.07,1.02,.32,1.92-.19,2.86-.42,8.36-2.03,16.78-3.44,25.44-3.03,1.63,.08,3.32,.43,4.93-.25,.38,.05,.77,.1,1.15,.15,.53,.85,1.13,.97,1.82,.19,.58,.06,1.17,.13,1.75,.19,.24,.28,.45,.75,.74,.8,3.6,.6,7.22,1.14,10.83,1.69,.3,.05,.6,.1,.9,.15,2.62,1.67,5.51,2.48,8.58,2.77,.29,.08,.57,.16,.86,.24,2.03,1.46,3.96,3.14,6.74,2.8,.74,.38,1.48,.77,2.21,1.15,.27,1.34,1.22,1.46,2.33,1.31,0,0-.01,0-.01,0,.14,.39,.41,.54,.82,.46,.14-.02,.25,.03,.33,.15,.15,.37,.42,.54,.82,.47,.15,0,.27,.06,.35,.19,.23,.16,.45,.32,.68,.47,0,0-.02-.01-.02-.01,.14,.39,.41,.55,.82,.44,.33,.22,.66,.43,.99,.65,.08,.66,.53,.8,1.1,.76Zm3.77,15.16c-.17-.21-.34-.43-.51-.64l-.04-.14c-4-4.67-9-7.97-14.46-10.66-.32-.23-.61-.52-.95-.69-15.74-7.68-32.28-10.96-49.76-8.89-7.52,.89-14.62,2.99-20.81,7.56-5.76,4.26-8.01,10.54-6.04,16.72,.39,2.5,1.95,4.48,2.96,6.7,.33,.72,.6,1.15,1.51,.62,4.82-2.81,10.22-3.73,15.59-4.78,9.07-1.77,18.08-1.67,27.19-.01,5.21,.95,10.24,2.46,15.37,3.67,10.66,2.51,20.83,6.09,30.01,12.17,3.36,2.22,3.33,2.27,5.1-1.58,.04-.08,0-.19,0-.29,2.28-4.5,1.94-8.89-.58-13.18l.04,.03c-.93-2.63-2.6-4.76-4.61-6.64l-.16-.02,.15,.05Zm-1.04,26.93c-6.59-4.18-13.53-6.78-20.56-9.21-12.75-4.41-25.68-8.07-39.28-8.06-7.55,0-15.03,1.24-22.37,3.1-.9,.23-2.31-.33-2.62,.76-.33,1.15,1,1.8,1.77,2.47,6.57,5.77,14.05,10.01,22.27,12.94,16.27,5.81,32.82,7.75,49.75,3.28,3.97-1.05,7.73-2.68,11.04-5.28Z"/>
      <path class="cls-8" d="M241.47,142.02c-1.61,.68-3.3,.33-4.93,.25-8.66-.41-17.08,1-25.44,3.03-.94,.23-1.84,.75-2.86,.42,3.29-2.17,7.17-2.36,10.86-3.06,7.41-1.41,14.87-2.02,22.37-.65Z"/>
      <path class="cls-8" d="M304.43,183.73c-.7-.11-1.5-.25-1.41-1.15,.32-3.18-.99-5.88-2.34-8.6-.15-.3,.01-.76,.03-1.15,2.6,3.17,3.66,6.86,3.72,10.9Z"/>
      <path class="cls-8" d="M257.76,145.04c-3.61-.55-7.22-1.09-10.83-1.69-.28-.05-.49-.52-.74-.8,3.95,.41,7.96,.5,11.56,2.49Z"/>
      <path class="cls-8" d="M267.23,147.96c-3.06-.29-5.96-1.1-8.58-2.77,3.05,.32,5.97,1.08,8.58,2.77Z"/>
      <path class="cls-8" d="M274.83,151c-2.78,.34-4.71-1.34-6.74-2.8,2.47,.41,4.69,1.39,6.74,2.8Z"/>
      <path class="cls-8" d="M300.52,172.45c-2.13-.57-2.78-2.18-2.9-4.15,1.38,1.1,2.36,2.46,2.9,4.15Z"/>
      <path class="cls-8" d="M303.92,191.71c-.48-1.43-.8-2.82,.66-3.92,.15,1.37,.34,2.75-.66,3.92Z"/>
      <path class="cls-8" d="M297.62,168.3c-1.48-.25-2.36-.99-2.2-2.61,1.05,.61,1.92,1.36,2.2,2.61Z"/>
      <path class="cls-8" d="M201.82,148.6c-.24,1.77-1.38,2.16-2.94,1.92,.67-1.11,1.73-1.63,2.94-1.92Z"/>
      <path class="cls-8" d="M300.81,198.74c-.45-1.63,.13-2.69,1.77-3.14-.27,1.23-.69,2.37-1.77,3.14Z"/>
      <path class="cls-8" d="M289.04,159.84c-1.28,.27-1.92-.31-2.07-1.55,.98,.13,1.65,.67,2.07,1.55Z"/>
      <path class="cls-8" d="M205.36,146.8c-.26,1.48-1.32,1.45-2.45,1.28,.62-.81,1.51-1.09,2.45-1.28Z"/>
      <path class="cls-8" d="M244.44,142.36c-.69,.78-1.3,.66-1.82-.19,.65-.34,1.26-.35,1.82,.19Z"/>
      <path class="cls-8" d="M279.37,153.46c-1.11,.15-2.06,.02-2.33-1.31,.93,.16,1.77,.48,2.33,1.31Z"/>
      <path class="cls-8" d="M290.66,161.07c-.86,.17-1.26-.22-1.29-1.05,.71,.01,1.12,.39,1.29,1.05Z"/>
      <path class="cls-8" d="M292.86,163.01c-.74,0-1.13-.38-1.2-1.11,.63,.12,.99,.53,1.2,1.11Z"/>
      <path class="cls-8" d="M295.21,165.37c-.52-.03-.94-.18-.96-.8,.46,.1,.87,.26,.96,.8Z"/>
      <path class="cls-8" d="M303.04,194.45c-.12-.57-.03-1.05,.56-1.32,.05,.54-.08,1.01-.56,1.32Z"/>
      <path class="cls-8" d="M291.62,161.86c-.51-.04-.91-.2-.98-.79,.49,.06,.85,.28,.98,.79Z"/>
      <path class="cls-8" d="M285.24,157.06c-.56,.03-1.01-.11-1.1-.76,.5,.07,.9,.27,1.1,.76Z"/>
      <path class="cls-8" d="M294.25,164.58c-.42-.02-.61-.26-.6-.67,.2,.22,.4,.44,.6,.67Z"/>
      <path class="cls-8" d="M286.66,158.1c-.43,.02-.68-.18-.76-.61,.25,.2,.51,.41,.76,.61Z"/>
      <path class="cls-8" d="M283.16,155.64c-.41,.11-.68-.04-.82-.44,.27,.15,.55,.29,.82,.44Z"/>
      <path class="cls-8" d="M282.35,155.22c-.23-.16-.45-.32-.68-.47,.23,.16,.45,.32,.68,.47Z"/>
      <path class="cls-8" d="M281.33,154.55c-.4,.06-.67-.1-.82-.47,.27,.16,.55,.32,.82,.47Z"/>
      <path class="cls-8" d="M280.18,153.92c-.41,.08-.68-.07-.82-.46,.27,.15,.55,.31,.82,.46Z"/>
      <path class="cls-7" d="M340.03,229.84c.04,7.64,.07,15.28,.12,22.92,.01,1.99-.65,3.26-2.93,2.93-.2-.85-.55-1.7-.59-2.56-.25-6.77-.5-13.54-.61-20.31-.05-3.01,1.17-3.81,4.01-2.98Z"/>
      <path class="cls-2" d="M196.45,175.5c-1.98-6.18,.28-12.46,6.04-16.72,6.18-4.58,13.29-6.67,20.81-7.56,17.48-2.07,34.02,1.21,49.76,8.89,.35,.17,.64,.45,.95,.69,.09,1.13,.9,1.68,1.75,2.2,3.83,2.36,7.6,4.8,10.63,8.19,.67,.75,1.32,.68,2.08,.26,0,0,.04,.14,.04,.14-.15,.47,.06,.65,.51,.64l-.15-.05s.16,.02,.15,.02c.57,2.88,1.22,5.72,4.61,6.64,0,0-.04-.03-.04-.03-.38,1.61,.16,3.08,.65,4.56,.63,1.92,.72,3.81-.21,5.66-5.01-3.51-9.85-7.31-15.07-10.48-7.69-4.68-16.14-7.49-24.96-9.41-12.32-2.68-24.65-3.94-37.23-2.64-7.78,.81-15.13,2.41-20.32,8.99Z"/>
      <path class="cls-5" d="M196.45,175.5c5.19-6.58,12.54-8.19,20.32-8.99,12.58-1.3,24.92-.04,37.23,2.64,8.83,1.92,17.27,4.73,24.96,9.41,5.22,3.17,10.06,6.96,15.07,10.48,.43,.97-1.05,2.03,.14,2.96,0,.1,.03,.21,0,.29-1.77,3.85-1.74,3.8-5.1,1.58-9.18-6.07-19.34-9.66-30.01-12.17-5.12-1.21-10.15-2.72-15.37-3.67-9.11-1.66-18.13-1.76-27.19,.01-5.37,1.05-10.77,1.97-15.59,4.78-.9,.53-1.18,.09-1.51-.62-1.01-2.22-2.57-4.2-2.96-6.7Z"/>
      <path class="cls-6" d="M288.47,171.44c-.76,.43-1.41,.5-2.08-.26-3.03-3.39-6.8-5.84-10.63-8.19-.85-.52-1.66-1.08-1.75-2.2,5.46,2.68,10.46,5.99,14.46,10.66Z"/>
      <path class="cls-6" d="M294.17,191.99c-1.2-.93,.29-1.99-.14-2.96,.94-1.85,.84-3.75,.21-5.66-.49-1.48-1.03-2.96-.65-4.56,2.52,4.29,2.86,8.68,.58,13.18Z"/>
      <path class="cls-6" d="M293.63,178.83c-3.4-.92-4.04-3.75-4.61-6.64,2.02,1.88,3.68,4,4.61,6.64Z"/>
      <path class="cls-6" d="M289.01,172.22c-.46,.02-.66-.16-.51-.64,.17,.21,.34,.42,.51,.64Z"/>
    </g>
  </g>
</svg>